<svg version="1.0" xmlns="http://www.w3.org/2000/svg"
 width="200.000000pt" height="200.000000pt" viewBox="0 0 200.000000 200.000000" fill="red" stroke="none">

<g transform="translate(0.000000,200.000000) scale(0.100000,-0.100000)"
>
<path d="M965 1763 c-31 -60 -37 -64 -129 -78 l-39 -6 48 -49 48 -49 -7 -54
c-3 -31 -9 -63 -12 -72 -5 -12 10 -8 61 17 l67 33 59 -32 c58 -32 59 -32 59
-10 -1 12 -5 42 -9 66 -9 44 -8 45 41 97 l50 53 -39 6 c-91 14 -97 18 -128 78
-16 31 -32 57 -35 57 -3 0 -18 -26 -35 -57z m61 -72 c13 -16 35 -32 49 -35
l25 -6 -21 -40 c-14 -26 -19 -49 -15 -66 6 -22 5 -24 -13 -15 -25 14 -77 14
-102 1 -17 -10 -19 -7 -19 28 0 24 -8 49 -20 65 l-20 25 30 7 c16 4 40 19 52
35 13 16 24 29 26 29 2 1 14 -12 28 -28z"/>
<path d="M383 1616 c4 -10 10 -42 13 -73 l7 -54 -47 -48 c-50 -50 -48 -61 8
-61 53 0 84 -20 113 -76 15 -30 30 -54 33 -54 3 0 19 26 35 58 28 53 33 58 75
65 104 19 99 12 46 66 -51 51 -53 59 -42 138 l8 52 -54 -29 c-29 -16 -60 -30
-69 -30 -8 0 -42 14 -74 32 -46 25 -57 28 -52 14z m127 -86 c17 0 40 5 52 11
18 10 19 8 14 -18 -4 -18 0 -40 13 -64 21 -39 19 -49 -10 -49 -9 0 -29 -14
-44 -32 l-27 -32 -19 26 c-11 15 -36 32 -55 38 l-36 12 23 24 c15 16 22 36 22
63 0 36 2 39 18 31 10 -6 32 -10 49 -10z"/>
<path d="M1376 1554 l7 -65 -48 -49 c-54 -55 -59 -48 45 -67 42 -7 47 -12 75
-65 17 -32 32 -58 35 -58 3 0 19 26 35 58 28 53 33 58 75 65 102 19 98 12 42
71 l-50 52 10 58 c6 31 8 59 5 62 -2 3 -30 -7 -61 -23 l-56 -27 -55 27 c-31
15 -58 27 -61 27 -2 0 -2 -30 2 -66z m119 -24 c23 0 46 5 53 12 9 9 12 3 12
-29 0 -25 7 -50 20 -66 22 -27 20 -31 -23 -41 -15 -4 -36 -20 -46 -37 l-18
-30 -17 26 c-10 15 -33 33 -52 41 l-35 15 21 26 c13 16 20 41 20 66 0 32 3 38
12 29 7 -7 30 -12 53 -12z"/>
<path d="M958 1290 c-106 -33 -164 -140 -127 -237 13 -34 55 -80 91 -99 40
-21 127 -18 164 5 85 52 116 150 74 235 -34 72 -132 118 -202 96z m109 -60
c45 -27 66 -64 66 -115 0 -155 -223 -184 -263 -35 -31 115 96 212 197 150z"/>
<path d="M180 1205 c-33 -74 -45 -83 -111 -91 -33 -4 -59 -9 -59 -12 0 -4 21
-28 47 -54 l46 -47 -9 -66 c-6 -36 -7 -65 -3 -65 4 0 27 11 50 25 56 31 75 31
133 -1 26 -15 49 -24 51 -22 3 2 -1 32 -7 66 l-12 63 47 47 c26 26 47 50 47
54 0 3 -26 8 -59 12 -65 7 -76 16 -114 91 l-25 50 -22 -50z m109 -125 c25 0
26 -7 5 -31 -9 -10 -18 -36 -21 -58 -5 -37 -8 -41 -27 -34 -27 9 -55 9 -83 -1
-21 -7 -23 -4 -23 27 0 19 -9 46 -20 60 -26 32 -25 33 9 40 17 4 39 19 51 35
l21 29 34 -34 c18 -18 42 -33 54 -33z"/>
<path d="M1759 1189 l-34 -64 -60 -9 c-33 -5 -62 -11 -64 -13 -3 -2 17 -26 44
-53 l48 -49 -10 -63 c-6 -35 -9 -64 -8 -66 2 -2 26 8 54 22 62 32 70 32 132 0
28 -14 53 -24 54 -22 2 2 0 21 -5 43 -17 74 -13 91 35 136 25 23 45 45 45 49
0 4 -26 10 -59 14 -65 7 -76 16 -113 90 l-25 49 -34 -64z m98 -105 c43 -10 45
-14 23 -41 -11 -14 -20 -41 -20 -59 0 -19 -2 -34 -4 -34 -1 0 -17 5 -33 11
-24 8 -39 7 -66 -4 l-34 -15 0 39 c0 22 -7 47 -17 57 -22 26 -21 30 18 46 19
8 42 26 52 41 l17 26 18 -30 c10 -17 31 -33 46 -37z"/>
<path d="M739 863 c-55 -34 -59 -52 -59 -286 l0 -214 -92 -33 c-101 -35 -209
-87 -248 -118 -20 -16 -22 -23 -13 -33 10 -10 30 -3 100 34 178 93 364 138
573 138 210 0 394 -45 572 -139 72 -38 90 -44 100 -34 11 11 8 17 -12 34 -39
31 -146 83 -248 118 l-91 32 -3 225 -3 225 -37 34 -38 34 -237 0 c-202 0 -242
-3 -264 -17z m241 -113 c0 -83 1 -90 20 -90 19 0 20 7 20 90 l0 90 101 0 c98
0 101 -1 130 -29 l29 -29 0 -207 0 -206 -37 7 c-21 3 -41 9 -45 13 -4 3 -9 65
-10 136 -3 108 -6 130 -18 130 -12 0 -16 -23 -20 -128 l-5 -128 -147 -2 -147
-2 -3 130 c-3 108 -6 130 -18 130 -12 0 -15 -23 -18 -133 -2 -94 -6 -134 -15
-137 -7 -2 -27 -6 -44 -9 l-33 -6 0 206 0 206 29 29 c29 28 32 29 130 29 l101
0 0 -90z"/>
<path d="M83 668 c3 -13 8 -43 12 -68 6 -43 5 -47 -39 -90 -25 -24 -46 -47
-46 -51 0 -4 24 -10 53 -14 72 -10 83 -18 116 -83 l29 -56 31 61 c32 64 37 68
114 79 26 3 47 9 47 12 0 4 -21 28 -46 54 l-47 47 10 63 c6 35 9 65 7 67 -1 2
-24 -8 -50 -23 -58 -32 -88 -32 -139 -1 -49 31 -59 31 -52 3z m109 -75 c10 -3
31 0 48 5 29 11 30 10 30 -22 0 -18 9 -45 20 -59 25 -32 25 -37 -1 -37 -12 0
-36 -15 -54 -34 l-32 -35 -22 30 c-12 17 -35 32 -52 36 -34 7 -35 8 -9 40 11
15 20 41 20 60 0 30 3 34 18 28 9 -4 25 -9 34 -12z"/>
<path d="M1673 668 c3 -13 8 -43 12 -68 6 -43 5 -47 -39 -90 -25 -24 -46 -47
-46 -51 0 -4 21 -10 48 -13 76 -11 81 -15 113 -79 l31 -61 25 49 c37 74 48 82
114 90 32 4 59 10 59 13 0 4 -21 28 -46 54 l-47 47 10 63 c6 35 9 65 7 67 -1
2 -24 -8 -50 -23 -58 -32 -88 -32 -139 -1 -49 31 -59 31 -52 3z m152 -70 c38
17 40 16 40 -27 1 -23 8 -48 18 -59 22 -25 21 -32 -4 -32 -12 0 -36 -15 -54
-34 l-32 -35 -22 30 c-12 17 -35 32 -52 36 -34 7 -35 8 -9 40 11 14 20 40 20
58 l0 33 35 -11 c25 -7 42 -7 60 1z"/>
</g>
</svg>
