<?xml version="1.0" standalone="no"?>
<!DOCTYPE svg PUBLIC "-//W3C//DTD SVG 20010904//EN"
 "http://www.w3.org/TR/2001/REC-SVG-20010904/DTD/svg10.dtd">
<svg version="1.0" xmlns="http://www.w3.org/2000/svg"
 width="1500.000000pt" height="1600.000000pt" viewBox="0 0 1500.000000 1600.000000"
 preserveAspectRatio="xMidYMid meet">

<g transform="translate(0.000000,1600.000000) scale(0.100000,-0.100000)"
fill="#000000" stroke="none">
<path d="M7796 13177 c3 -10 9 -15 12 -12 3 3 0 11 -7 18 -10 9 -11 8 -5 -6z"/>
<path d="M7821 13150 c0 -8 4 -24 9 -35 5 -13 9 -14 9 -5 0 8 -4 24 -9 35 -5
13 -9 14 -9 5z"/>
<path d="M7867 13074 c-5 -29 26 -103 37 -85 4 6 23 11 42 11 l35 0 -49 50
c-27 28 -52 50 -54 50 -3 0 -8 -12 -11 -26z"/>
<path d="M7911 12960 c0 -8 4 -24 9 -35 5 -13 9 -14 9 -5 0 8 -4 24 -9 35 -5
13 -9 14 -9 5z"/>
<path d="M7940 12895 c0 -8 4 -15 10 -15 5 0 7 7 4 15 -4 8 -8 15 -10 15 -2 0
-4 -7 -4 -15z"/>
<path d="M7500 12885 c-1 -5 -1 -65 0 -132 l2 -123 -61 0 -61 0 32 63 c18 34
36 64 40 67 3 3 10 18 13 33 4 15 11 30 16 33 12 7 12 24 0 24 -5 0 -12 -13
-16 -30 -4 -16 -10 -30 -15 -30 -5 0 -11 -13 -15 -30 -4 -16 -10 -30 -15 -30
-5 0 -11 -13 -15 -30 -4 -16 -11 -30 -16 -30 -5 0 -9 -6 -9 -13 0 -17 -90
-107 -107 -107 -7 0 -13 -4 -13 -10 0 -5 -12 -13 -27 -16 -16 -4 -31 -11 -34
-16 -3 -5 -32 -12 -64 -15 -46 -5 -54 -8 -37 -14 18 -7 22 -16 22 -51 0 -24 3
-73 7 -110 l6 -68 183 0 184 0 0 -30 c0 -32 23 -42 34 -15 3 10 20 15 48 16
27 1 34 3 18 6 -14 3 -29 9 -34 14 -6 5 -23 9 -38 9 l-28 0 0 185 0 185 53 2
c28 0 58 1 65 1 18 -1 16 5 -38 113 -27 54 -50 105 -50 112 0 6 -4 12 -9 12
-5 0 -12 8 -14 18 -3 9 -6 13 -7 7z"/>
<path d="M8546 12613 c8 -35 7 -33 19 -19 7 8 5 16 -7 29 -18 17 -18 16 -12
-10z"/>
<path d="M8573 12495 c0 -44 2 -61 4 -37 2 23 2 59 0 80 -2 20 -4 1 -4 -43z"/>
<path d="M8618 12405 l3 -155 -66 0 c-65 0 -81 10 -51 34 21 16 66 109 58 121
-3 5 -10 -7 -15 -28 -5 -20 -13 -37 -18 -37 -5 0 -9 -6 -9 -13 0 -8 -67 -81
-150 -163 -82 -81 -145 -151 -141 -154 5 -3 12 -42 16 -88 6 -65 10 -80 19
-69 12 16 122 26 274 27 l82 0 0 108 c0 60 3 143 6 185 l7 77 118 0 118 0 -13
33 c-7 17 -11 38 -9 45 4 11 -9 17 -30 13 -5 -1 -6 3 -3 8 5 7 -186 211 -197
211 -1 0 -1 -70 1 -155z"/>
<path d="M10436 12507 c4 -23 10 -46 15 -51 5 -6 10 -98 11 -205 1 -108 4
-152 5 -98 3 77 7 97 18 97 12 0 15 21 15 115 l0 114 -35 35 -35 35 6 -42z"/>
<path d="M7825 12486 c27 -8 41 -18 43 -31 8 -51 14 -65 52 -103 l40 -42 30
30 c17 17 33 30 35 30 3 0 24 19 46 43 l42 42 -64 8 c-35 4 -80 12 -99 17 -19
5 -64 11 -100 14 -63 4 -64 4 -25 -8z"/>
<path d="M6935 12460 c-27 -4 -44 -8 -36 -8 8 -1 20 -10 27 -19 13 -16 13 -16
8 -1 -4 12 0 17 13 17 10 1 43 5 73 10 l55 8 -45 0 c-25 0 -67 -3 -95 -7z"/>
<path d="M6086 12373 c8 -35 7 -33 19 -19 7 8 5 16 -7 29 -18 17 -18 16 -12
-10z"/>
<path d="M6108 12275 c-8 -78 -26 -157 -38 -169 -6 -6 -10 -19 -10 -30 0 -12
-6 -33 -14 -48 -8 -15 -17 -42 -21 -60 -4 -18 -10 -37 -14 -43 -3 -5 -11 -29
-17 -52 -11 -42 -3 -73 18 -73 9 0 9 3 0 12 -18 18 -15 46 6 52 9 2 93 8 185
12 l168 6 -2 114 -1 114 -69 70 c-69 69 -70 70 -124 70 l-54 0 -3 43 c-3 40
-4 39 -10 -18z"/>
<path d="M8857 12309 c7 -7 15 -10 18 -7 3 3 -2 9 -12 12 -14 6 -15 5 -6 -5z"/>
<path d="M8882 12270 c0 -14 2 -19 5 -12 2 6 2 18 0 25 -3 6 -5 1 -5 -13z"/>
<path d="M4942 12113 l2 -168 3 151 c3 146 4 152 23 147 27 -7 25 1 -5 21
l-25 16 2 -167z"/>
<path d="M10052 12272 c-1 -7 -12 -17 -24 -22 -27 -12 -61 -32 -68 -41 -12
-15 -101 -79 -110 -79 -6 0 -10 -4 -10 -9 0 -5 -12 -12 -27 -16 -15 -3 -31
-12 -35 -18 -5 -8 -45 -12 -121 -12 -89 0 -106 -2 -82 -10 16 -5 63 -9 103 -9
l72 1 0 -88 0 -88 170 -3 170 -3 -6 35 c-4 19 -11 37 -15 40 -5 3 -10 80 -12
170 -1 91 -4 159 -5 152z"/>
<path d="M7106 12235 c4 -8 8 -15 10 -15 2 0 4 7 4 15 0 8 -4 15 -10 15 -5 0
-7 -7 -4 -15z"/>
<path d="M10500 12145 c0 -93 -2 -104 -17 -98 -12 5 -11 1 5 -15 12 -12 26
-22 30 -22 5 0 18 -8 30 -17 11 -10 30 -25 42 -33 12 -8 33 -23 45 -32 13 -10
26 -18 30 -18 3 0 13 -7 21 -15 9 -8 32 -15 52 -15 l37 0 -5 137 c-4 108 -9
145 -23 172 -10 18 -14 30 -8 27 6 -4 11 -2 11 3 0 6 -7 11 -15 11 -8 0 -15 5
-15 10 0 6 -43 10 -110 10 l-110 0 0 -105z"/>
<path d="M4990 12226 c0 -2 7 -7 16 -10 8 -3 12 -2 9 4 -6 10 -25 14 -25 6z"/>
<path d="M7137 12179 c4 -13 8 -18 11 -10 2 7 -1 18 -6 23 -8 8 -9 4 -5 -13z"/>
<path d="M9327 12137 c3 -18 10 -34 14 -37 4 -3 10 -22 14 -43 4 -20 11 -37
15 -37 4 0 12 -19 18 -42 6 -24 9 -29 7 -13 -3 17 -8 60 -11 98 l-7 67 34 -5
34 -5 -35 11 c-19 6 -39 14 -45 18 -5 4 -18 11 -27 14 -15 5 -16 1 -11 -26z"/>
<path d="M5650 12146 c0 -8 5 -18 10 -21 6 -3 10 3 10 14 0 12 -4 21 -10 21
-5 0 -10 -6 -10 -14z"/>
<path d="M7162 12140 c0 -14 2 -19 5 -12 2 6 2 18 0 25 -3 6 -5 1 -5 -13z"/>
<path d="M5575 12133 c-11 -3 -24 -9 -30 -13 -5 -4 -26 -11 -45 -15 -19 -4
-41 -12 -49 -19 -9 -7 -58 -11 -130 -11 -64 0 -106 -1 -93 -3 19 -3 22 -9 22
-46 0 -36 5 -47 36 -74 20 -18 39 -32 42 -32 3 0 15 -9 26 -19 18 -17 38 -20
126 -22 l105 -2 3 27 c2 14 7 26 12 26 4 0 11 20 14 45 4 25 14 57 22 73 7 15
13 36 13 47 -1 17 -2 16 -10 -5 -7 -21 -8 -20 -6 13 3 39 -4 43 -58 30z"/>
<path d="M7167 12000 c-4 -63 -11 -116 -16 -119 -5 -3 -12 -36 -16 -74 l-7
-67 33 17 c19 10 36 21 39 25 3 3 18 10 33 13 15 4 27 11 27 15 0 5 14 11 30
15 17 4 30 11 30 16 0 5 12 12 28 16 25 7 24 8 -18 14 -25 4 -71 8 -104 8
l-59 1 7 53 c13 95 15 138 7 159 -5 14 -10 -20 -14 -92z"/>
<path d="M9470 12100 c14 -4 34 -8 45 -8 16 0 15 2 -5 8 -14 4 -34 8 -45 8
-16 0 -15 -2 5 -8z"/>
<path d="M4917 11910 c-4 -17 -12 -37 -19 -45 -29 -32 -36 -43 -42 -66 -5 -16
-4 -20 2 -11 6 9 11 -35 14 -122 4 -87 10 -141 18 -151 10 -12 40 -15 157 -15
94 0 142 4 138 10 -3 6 -2 10 4 10 6 0 8 6 5 14 -3 9 3 17 15 21 17 5 21 15
22 48 1 23 1 48 0 56 -2 7 1 11 6 8 4 -3 8 41 8 98 l0 102 -160 8 c-88 4 -162
8 -164 11 -2 2 2 11 9 19 9 11 10 19 3 26 -7 7 -12 0 -16 -21z"/>
<path d="M9412 11915 c0 -16 2 -22 5 -12 2 9 2 23 0 30 -3 6 -5 -1 -5 -18z"/>
<path d="M9414 11809 c-1 -48 -7 -85 -18 -104 -9 -16 -16 -36 -16 -42 0 -7 -4
-13 -8 -13 -5 0 -7 -34 -4 -75 l5 -75 -41 0 c-22 0 -44 5 -47 10 -6 10 -55
-43 -76 -82 -8 -16 -7 -17 16 -8 14 5 29 9 33 9 23 -4 145 3 135 8 -7 2 -13
18 -13 34 l0 29 175 0 175 0 0 24 c0 13 -6 27 -12 29 -10 4 -10 7 0 15 11 8
11 11 0 23 -7 8 -14 28 -16 44 -2 17 -12 45 -23 64 -11 18 -18 36 -15 38 3 3
-4 28 -14 57 -11 28 -20 52 -20 54 0 1 12 0 28 -4 79 -18 92 -17 92 5 0 20 -5
21 -77 20 -43 -1 -118 2 -168 6 l-90 7 -1 -73z"/>
<path d="M6380 11835 c0 -40 15 -47 24 -10 4 14 11 25 17 25 6 0 7 5 4 10 -3
6 -15 10 -26 10 -15 0 -19 -7 -19 -35z"/>
<path d="M8632 11826 l-1 -41 20 25 c11 14 30 33 42 42 22 17 21 17 -19 16
l-42 0 0 -42z"/>
<path d="M8272 11805 c0 -59 14 -167 18 -130 1 17 1 35 0 40 -1 6 -5 37 -10
70 -6 46 -8 50 -8 20z"/>
<path d="M10131 11818 c-1 -23 34 -58 57 -57 11 0 7 4 -10 10 -15 6 -31 22
-37 37 -6 17 -10 21 -10 10z"/>
<path d="M6020 11781 c0 -6 4 -13 10 -16 6 -3 7 1 4 9 -7 18 -14 21 -14 7z"/>
<path d="M6385 11780 c-3 -5 -1 -10 4 -10 6 0 11 5 11 10 0 6 -2 10 -4 10 -3
0 -8 -4 -11 -10z"/>
<path d="M4815 11770 c-16 -7 -17 -9 -3 -9 9 -1 20 4 23 9 7 11 7 11 -20 0z"/>
<path d="M4778 11737 c-7 -7 -21 -16 -30 -20 -10 -3 -18 -12 -17 -19 0 -10 2
-10 6 0 2 6 9 12 15 12 5 0 21 9 35 20 14 11 21 20 15 20 -6 0 -17 -6 -24 -13z"/>
<path d="M10217 11731 c12 -12 24 -21 27 -21 3 0 28 -22 55 -50 40 -40 57 -50
83 -50 30 1 31 2 13 12 -11 6 -22 14 -25 18 -3 3 -22 16 -42 29 -21 12 -38 27
-38 32 0 5 -6 9 -14 9 -8 0 -21 6 -28 13 -7 7 -22 17 -33 21 -18 7 -18 6 2
-13z"/>
<path d="M10866 11678 c-8 -48 -3 -98 10 -98 6 0 20 -11 33 -23 19 -21 20 -25
6 -37 -24 -20 -18 -26 20 -22 l35 4 -21 35 c-19 30 -20 40 -11 69 10 33 8 37
-24 69 -19 19 -37 35 -39 35 -2 0 -6 -15 -9 -32z"/>
<path d="M4686 11675 c-8 -8 -19 -15 -25 -15 -5 0 -14 -6 -18 -14 -5 -8 -19
-19 -33 -25 -24 -9 -24 -10 8 -10 18 -1 31 3 28 8 -4 5 13 23 36 40 23 17 37
31 31 31 -7 0 -18 -7 -27 -15z"/>
<path d="M6110 11661 c0 -6 4 -13 10 -16 6 -3 7 1 4 9 -7 18 -14 21 -14 7z"/>
<path d="M8278 11567 c-3 -33 -10 -62 -17 -66 -15 -9 -15 -18 -13 -213 l2
-158 156 0 c145 0 155 1 152 18 -3 21 21 73 39 85 15 9 18 117 4 117 -5 0 -12
12 -15 26 -5 19 -2 30 11 40 17 13 17 14 1 8 -15 -5 -18 0 -18 23 0 49 -12 53
-163 53 l-139 0 7 23 c11 37 13 61 5 82 -5 14 -9 2 -12 -38z m322 -317 c0 -5
-4 -10 -10 -10 -5 0 -10 5 -10 10 0 6 5 10 10 10 6 0 10 -4 10 -10z"/>
<path d="M9338 11600 c-10 -9 -18 -20 -18 -24 0 -4 -7 -14 -15 -22 -8 -9 -15
-20 -15 -26 0 -6 16 10 36 36 37 49 43 67 12 36z"/>
<path d="M4658 11593 c7 -3 16 -2 19 1 4 3 -2 6 -13 5 -11 0 -14 -3 -6 -6z"/>
<path d="M4708 11583 c7 -3 16 -2 19 1 4 3 -2 6 -13 5 -11 0 -14 -3 -6 -6z"/>
<path d="M11000 11576 c0 -2 8 -10 18 -17 15 -13 16 -12 3 4 -13 16 -21 21
-21 13z"/>
<path d="M6211 11508 c-1 -9 5 -18 12 -20 8 -3 12 -35 12 -114 0 -134 -9 -158
-92 -251 -37 -40 -44 -56 -12 -27 18 16 37 19 133 19 l111 0 3 -182 c2 -157 5
-183 18 -183 8 0 13 4 9 9 -3 5 12 19 33 31 25 14 44 35 52 56 7 18 17 31 22
28 8 -5 12 9 9 39 -1 9 3 17 8 17 6 0 11 11 11 25 0 14 4 25 10 25 12 0 9 42
-4 52 -5 3 -1 14 8 24 13 12 14 19 6 24 -9 6 -9 9 1 12 32 12 -8 23 -94 28
l-92 5 -1 80 c-1 186 -3 204 -24 225 -11 11 -20 23 -20 28 0 18 -43 42 -74 42
-19 0 -37 6 -39 13 -4 7 -6 6 -6 -5z"/>
<path d="M7465 11482 c-16 -10 -32 -20 -35 -23 -3 -4 -15 -9 -27 -13 -13 -4
-23 -11 -23 -16 0 -5 -14 -12 -31 -15 -23 -5 -28 -10 -18 -16 8 -5 16 -3 21 4
14 24 22 -7 28 -114 4 -60 11 -114 17 -120 11 -11 73 -1 73 12 0 5 7 6 15 3 8
-4 15 -17 15 -30 l0 -24 143 1 c78 0 136 3 130 6 -21 8 -15 22 7 16 11 -3 20
-9 20 -14 0 -5 15 -8 33 -8 17 1 25 3 15 6 -16 4 -33 32 -24 40 2 3 13 0 24
-6 18 -10 20 -6 27 54 l7 65 81 2 82 2 -80 3 c-43 2 -84 8 -90 12 -5 5 -23 11
-40 15 -16 4 -32 11 -35 14 -3 4 -25 17 -50 30 -25 13 -65 34 -88 47 -35 19
-53 23 -87 18 -42 -5 -44 -7 -47 -42 -3 -31 -6 -36 -28 -36 -23 0 -25 4 -28
46 -2 35 2 49 18 64 38 34 24 44 -25 17z m216 -134 c2 -50 -1 -61 -24 -85 -14
-16 -32 -23 -59 -23 -36 0 -38 2 -38 30 0 27 3 30 30 30 27 0 30 3 30 34 0 34
9 44 43 45 13 1 17 -7 18 -31z"/>
<path d="M8190 11400 c-19 -22 -40 -39 -47 -40 -7 0 -16 -6 -20 -14 -4 -7 -15
-16 -23 -19 -12 -4 -11 -6 3 -6 10 -1 20 6 23 14 4 8 11 15 18 15 7 0 32 20
56 45 24 25 40 45 35 44 -6 0 -26 -18 -45 -39z"/>
<path d="M10822 11424 c-8 -14 -3 -26 17 -51 45 -57 59 -31 17 32 -22 31 -26
34 -34 19z"/>
<path d="M7276 11381 c-18 -7 -18 -8 -3 -14 9 -3 17 -2 17 3 0 5 8 11 18 13
11 3 12 5 2 5 -8 0 -24 -3 -34 -7z"/>
<path d="M7221 11351 c-9 -6 -10 -11 -2 -15 6 -4 11 -3 11 3 0 5 8 12 18 14
12 3 13 5 2 6 -8 0 -21 -3 -29 -8z"/>
<path d="M6878 11343 c7 -3 16 -2 19 1 4 3 -2 6 -13 5 -11 0 -14 -3 -6 -6z"/>
<path d="M10744 11335 c-4 -8 -12 -15 -19 -15 -17 0 -28 -31 -16 -43 13 -13
81 42 74 60 -7 18 -32 17 -39 -2z"/>
<path d="M5062 11315 c0 -11 4 -33 8 -50 7 -27 8 -27 8 -5 0 14 -4 36 -8 50
-6 20 -8 21 -8 5z"/>
<path d="M6999 11230 c57 -55 108 -100 112 -100 8 0 18 54 21 125 l2 50 -61
-3 c-37 -2 -78 2 -107 12 -26 9 -52 16 -59 16 -7 0 35 -45 92 -100z"/>
<path d="M7188 11323 c7 -3 16 -2 19 1 4 3 -2 6 -13 5 -11 0 -14 -3 -6 -6z"/>
<path d="M7140 11316 c0 -2 7 -6 15 -10 8 -3 15 -1 15 4 0 6 -7 10 -15 10 -8
0 -15 -2 -15 -4z"/>
<path d="M8040 11316 c0 -9 30 -14 35 -6 4 6 -3 10 -14 10 -12 0 -21 -2 -21
-4z"/>
<path d="M10813 11272 c-61 -48 -62 -50 -43 -67 18 -16 21 -16 44 -2 13 9 28
27 32 39 4 13 13 28 22 34 8 6 13 18 11 28 -3 15 -15 10 -66 -32z"/>
<path d="M4340 11280 c0 -18 72 -90 89 -90 6 0 11 9 11 20 0 12 7 20 18 20 36
0 45 -16 40 -66 l-5 -49 100 3 c75 3 102 0 108 -10 6 -9 9 -6 9 10 0 12 -4 22
-10 22 -5 0 -10 7 -10 15 0 20 -76 49 -202 77 -27 6 -48 14 -48 18 0 4 -19 10
-42 14 -23 4 -46 12 -50 19 -5 9 -8 8 -8 -3z"/>
<path d="M10585 11240 l-28 -29 28 -38 c40 -52 41 -53 120 -53 63 0 67 2 45
13 -14 7 -45 40 -70 74 -25 34 -50 62 -56 62 -5 1 -23 -12 -39 -29z"/>
<path d="M9750 11255 c0 -3 20 -33 45 -67 25 -34 45 -65 45 -70 0 -4 7 -4 17
-1 12 5 14 3 8 -7 -5 -9 -4 -11 3 -6 19 12 14 23 -27 63 -21 21 -46 50 -56 66
-15 24 -35 36 -35 22z"/>
<path d="M5092 11215 c1 -38 13 -81 19 -65 3 8 0 31 -7 50 -7 19 -13 26 -12
15z"/>
<path d="M10408 11203 c-16 -2 -28 -9 -28 -14 0 -14 24 -11 46 6 10 8 17 14
14 13 -3 0 -17 -3 -32 -5z"/>
<path d="M10500 11146 c0 -9 -8 -16 -18 -16 -10 0 -27 -6 -37 -14 -17 -13 -17
-15 16 -61 l34 -47 3 56 c2 41 7 56 17 56 19 0 19 14 0 30 -12 10 -15 10 -15
-4z"/>
<path d="M5155 11139 c-4 -6 -13 -8 -21 -5 -10 4 -14 -3 -14 -26 0 -31 0 -31
18 -12 10 10 21 27 25 37 7 19 2 23 -8 6z"/>
<path d="M10834 11135 c-10 -8 -14 -15 -7 -15 19 0 43 11 43 21 0 13 -14 11
-36 -6z"/>
<path d="M10288 11098 c-3 -17 1 -38 8 -47 27 -33 127 -176 131 -189 3 -7 -17
-35 -44 -62 l-50 -50 83 0 84 0 0 -116 c0 -68 4 -113 9 -109 5 3 12 -7 14 -22
2 -16 5 -2 6 30 0 32 6 57 12 57 5 0 7 5 4 10 -3 6 -1 10 4 10 6 0 11 16 11
35 0 19 5 35 11 35 6 0 9 9 6 20 -3 10 0 21 7 24 6 2 3 5 -6 5 -10 1 -18 6
-18 11 0 6 -13 10 -30 10 l-30 0 0 84 c0 74 -2 84 -19 89 -11 2 -41 34 -66 70
-35 48 -52 63 -65 60 -23 -6 -46 32 -31 51 12 14 5 26 -15 26 -6 0 -14 -14
-16 -32z"/>
<path d="M7130 11111 c0 -10 118 -131 127 -131 4 0 -2 9 -12 20 -22 24 -1 28
29 5 11 -8 31 -15 44 -15 13 0 32 -5 43 -10 13 -7 19 -7 19 0 0 5 11 10 25 10
15 0 25 6 25 15 0 11 5 12 25 5 23 -9 29 -6 26 13 0 4 4 7 9 7 6 0 10 20 10
45 l0 45 -185 0 c-106 0 -185 -4 -185 -9z"/>
<path d="M7963 11113 c9 -2 17 -8 17 -13 0 -4 12 -11 27 -15 15 -3 46 -19 69
-35 23 -15 66 -37 95 -48 67 -25 79 -16 79 63 l0 55 -152 -1 c-84 -1 -145 -3
-135 -6z"/>
<path d="M10880 11025 c0 -63 4 -95 11 -95 6 0 8 7 5 15 -3 9 -1 15 7 14 30
-4 46 2 50 19 3 9 5 3 6 -15 2 -57 18 -44 25 19 3 34 10 64 15 67 4 3 12 17
16 31 4 14 13 28 19 32 6 4 -26 8 -71 8 l-83 0 0 -95z"/>
<path d="M6080 11070 c0 -5 -16 -12 -36 -16 -22 -4 -31 -10 -24 -14 7 -4 25
-1 41 7 31 15 47 33 30 33 -6 0 -11 -4 -11 -10z"/>
<path d="M8960 11027 c23 -23 36 -30 38 -21 2 8 18 15 40 16 l37 1 -35 4 c-19
3 -37 8 -40 13 -3 4 -21 11 -40 15 l-35 7 35 -35z"/>
<path d="M4010 11023 c0 -21 3 -24 9 -14 5 8 7 20 4 28 -8 21 -13 15 -13 -14z"/>
<path d="M5783 11032 c-117 -1 -213 -6 -213 -11 0 -4 11 -6 25 -3 l25 4 1
-103 c1 -57 2 -117 3 -134 l1 -30 -112 -3 c-93 -2 -113 0 -113 12 0 8 6 17 13
19 9 4 9 6 -1 6 -7 1 -17 -9 -22 -21 -5 -13 -9 -20 -9 -16 -1 4 -23 -15 -50
-42 -27 -28 -57 -50 -65 -50 -9 0 -16 -4 -16 -10 0 -5 -18 -13 -41 -16 -26 -4
-36 -10 -28 -15 7 -4 21 -3 30 2 36 19 39 11 39 -116 l0 -125 185 0 185 0 2
183 3 182 188 3 c184 2 187 2 187 -18 0 -12 4 -19 9 -15 5 3 12 -3 14 -12 4
-15 5 -16 6 -2 1 15 19 17 165 15 148 -1 164 1 163 16 -1 9 -6 14 -12 10 -16
-11 -69 -10 -77 2 -6 8 -11 6 -18 -4 -6 -10 -10 -11 -10 -2 0 6 -6 12 -14 12
-8 0 -17 -6 -19 -12 -4 -10 -6 -10 -6 0 -1 9 -28 12 -101 12 l-101 0 2 141 c0
77 -1 141 -2 142 -2 1 -100 1 -216 -1z"/>
<path d="M9226 11023 l142 -4 7 -134 7 -135 125 0 c98 0 122 3 113 13 -6 6
-33 44 -60 82 -27 39 -54 75 -60 82 -5 7 -10 16 -10 21 0 5 -9 17 -20 27 -11
10 -20 24 -20 30 0 22 -27 25 -198 23 l-167 -2 141 -3z"/>
<path d="M5546 10994 c-8 -22 -4 -25 11 -9 7 8 9 16 4 19 -5 3 -12 -1 -15 -10z"/>
<path d="M4020 10949 c0 -28 3 -39 9 -31 9 14 7 60 -3 70 -3 3 -6 -15 -6 -39z"/>
<path d="M10250 10972 c0 -11 -4 -23 -9 -27 -6 -3 -13 -26 -17 -51 -5 -39 -3
-49 17 -70 28 -30 50 -30 85 -1 l27 24 -33 49 c-18 27 -42 60 -52 73 -17 23
-18 23 -18 3z"/>
<path d="M5520 10955 c0 -8 -7 -18 -15 -21 -8 -4 -15 -12 -15 -20 0 -8 -9 -22
-20 -31 -11 -10 -20 -21 -20 -26 0 -5 -7 -15 -15 -23 -8 -9 -15 -20 -15 -26 0
-6 9 1 20 15 11 14 20 28 20 31 0 3 7 14 15 24 46 52 65 81 55 87 -5 3 -10 -1
-10 -10z"/>
<path d="M4121 10918 c1 -7 1 -48 0 -90 -1 -76 -2 -78 -25 -78 -28 0 -35 15
-47 100 -5 37 -6 20 -2 -50 7 -149 19 -179 76 -180 4 0 7 29 7 65 l0 65 78 1
c42 1 81 1 85 0 13 -2 2 12 -80 98 -74 78 -96 95 -92 69z"/>
<path d="M10953 10860 c0 -25 2 -35 4 -22 2 12 2 32 0 45 -2 12 -4 2 -4 -23z"/>
<path d="M12476 10783 c4 -16 12 -31 18 -35 7 -5 11 -47 11 -114 -1 -100 0
-103 10 -58 6 27 10 60 8 74 -2 14 -5 46 -7 71 -2 30 -11 54 -25 68 l-22 22 7
-28z"/>
<path d="M3630 10793 c0 -16 -210 -223 -225 -223 -8 0 -15 -4 -15 -9 0 -12
-97 -34 -155 -34 -27 0 -92 6 -142 15 -51 8 -99 11 -105 6 -10 -6 -10 -8 1 -8
10 0 12 -10 8 -42 -4 -32 0 -54 16 -88 22 -45 22 -45 62 -38 22 4 99 7 170 6
l130 -2 3 82 c3 77 5 83 30 99 15 10 60 50 99 90 115 114 136 123 146 58 3
-20 5 -12 6 21 1 35 -4 56 -14 64 -8 7 -15 8 -15 3z"/>
<path d="M11360 10771 c0 -12 -4 -21 -9 -21 -4 0 -11 -28 -15 -62 -12 -116
-45 -235 -72 -262 -8 -8 -14 -19 -14 -24 0 -6 -19 -25 -42 -43 -24 -19 -45
-37 -48 -40 -3 -4 -18 -11 -33 -14 -15 -4 -27 -11 -27 -15 0 -5 -13 -11 -30
-15 -16 -4 -30 -10 -30 -15 0 -5 -13 -11 -30 -15 -16 -4 -30 -10 -30 -15 0 -5
-13 -11 -30 -15 -16 -4 -30 -12 -30 -18 0 -12 88 -57 110 -57 5 0 10 -4 10 -9
0 -5 14 -12 30 -16 17 -4 30 -10 30 -15 0 -5 14 -11 30 -15 17 -4 30 -10 30
-13 0 -4 19 -18 41 -32 22 -13 42 -35 45 -47 4 -13 9 -23 13 -23 10 0 43 -77
53 -125 5 -22 14 -80 20 -130 7 -49 17 -95 24 -102 9 -9 27 4 77 56 l66 67
-50 47 c-27 25 -49 49 -49 52 0 3 -8 13 -17 24 -55 57 -83 90 -83 96 0 3 6 0
14 -7 8 -9 27 -13 50 -10 30 3 34 7 25 18 -9 12 -5 14 25 14 23 0 35 4 31 10
-4 6 -11 8 -16 5 -5 -4 -15 -3 -21 2 -17 10 -18 10 -93 12 l-65 1 2 183 3 182
115 6 c63 4 146 7 183 8 l69 1 -4 80 c-3 82 -1 87 32 70 13 -7 21 -7 25 0 3 5
-2 10 -12 10 -31 0 -118 64 -194 144 -40 42 -79 74 -86 72 -7 -3 -10 1 -7 8 3
8 1 17 -5 21 -7 3 -11 -2 -11 -14z"/>
<path d="M10168 10768 c-6 -17 12 -35 35 -35 15 0 16 3 4 21 -17 25 -34 31
-39 14z"/>
<path d="M6428 10753 c7 -3 16 -2 19 1 4 3 -2 6 -13 5 -11 0 -14 -3 -6 -6z"/>
<path d="M9319 10734 c-9 -12 -6 -14 20 -14 19 0 31 5 31 13 0 18 -36 19 -51
1z"/>
<path d="M9270 10726 c0 -2 7 -7 16 -10 8 -3 12 -2 9 4 -6 10 -25 14 -25 6z"/>
<path d="M10100 10692 c-8 -3 -19 -9 -25 -14 -5 -5 -19 -15 -30 -22 -18 -13
-18 -15 14 -51 l33 -38 -23 -18 c-13 -10 -27 -19 -30 -19 -4 0 -24 23 -45 50
-39 51 -45 54 -79 41 -19 -8 -19 -8 3 -15 57 -19 81 -94 46 -144 -15 -22 -15
-25 17 -53 27 -24 41 -29 84 -29 l52 0 7 92 c8 119 8 200 -2 214 -4 6 -14 9
-22 6z"/>
<path d="M6338 10683 c6 -2 18 -2 25 0 6 3 1 5 -13 5 -14 0 -19 -2 -12 -5z"/>
<path d="M6295 10670 c-4 -6 3 -10 14 -10 25 0 27 6 6 13 -8 4 -17 2 -20 -3z"/>
<path d="M6248 10653 c6 -2 18 -2 25 0 6 3 1 5 -13 5 -14 0 -19 -2 -12 -5z"/>
<path d="M4980 10627 c8 -7 21 -19 28 -27 11 -13 12 -13 7 3 -6 13 -2 17 16
17 32 0 20 6 -26 13 -33 5 -37 4 -25 -6z"/>
<path d="M6218 10633 c7 -3 16 -2 19 1 4 3 -2 6 -13 5 -11 0 -14 -3 -6 -6z"/>
<path d="M3661 10614 c0 -11 3 -14 6 -6 3 7 2 16 -1 19 -3 4 -6 -2 -5 -13z"/>
<path d="M9777 10624 c-6 -7 14 -44 24 -44 4 0 24 7 44 16 29 12 35 18 24 25
-16 10 -82 12 -92 3z"/>
<path d="M5078 10603 c17 -2 47 -2 65 0 17 2 3 4 -33 4 -36 0 -50 -2 -32 -4z"/>
<path d="M2936 10555 c4 -8 7 -15 9 -15 1 0 8 7 15 15 10 13 9 15 -8 15 -15 0
-20 -5 -16 -15z"/>
<path d="M12005 10561 c-3 -6 -37 -13 -76 -17 -46 -4 -66 -10 -57 -15 9 -5 30
-4 49 1 19 6 44 10 57 10 22 0 24 -3 20 -50 -3 -49 -3 -50 14 -27 10 12 18 27
18 34 0 6 6 18 13 25 7 7 16 21 20 31 5 14 1 17 -23 17 -16 0 -31 -4 -35 -9z"/>
<path d="M2961 10530 c0 -8 4 -24 9 -35 5 -13 9 -14 9 -5 0 8 -4 24 -9 35 -5
13 -9 14 -9 5z"/>
<path d="M9860 10532 c0 -5 9 -17 21 -28 17 -16 22 -16 29 -4 6 8 8 20 7 25
-4 13 -57 19 -57 7z"/>
<path d="M12477 10502 c-7 -35 -3 -38 11 -7 6 13 7 27 3 30 -5 2 -11 -8 -14
-23z"/>
<path d="M11733 10513 c26 -2 67 -2 90 0 23 2 2 3 -48 3 -49 0 -68 -1 -42 -3z"/>
<path d="M12750 10450 l0 -70 43 1 c23 0 36 3 30 6 -7 2 -13 13 -13 23 0 9 -6
23 -14 30 -8 6 -12 19 -9 27 4 10 2 14 -4 10 -7 -5 -9 0 -6 12 3 11 -2 21 -11
24 -14 5 -16 -4 -16 -63z"/>
<path d="M7500 10472 c0 -8 -46 -12 -142 -15 l-143 -3 143 -2 142 -2 0 -35 0
-35 -185 0 -185 0 0 31 c0 25 3 29 19 24 10 -3 29 -1 42 5 18 7 2 9 -61 6 -91
-5 -248 -27 -265 -37 -5 -4 -34 -10 -62 -14 -29 -4 -55 -11 -58 -15 -3 -4 -32
-11 -65 -15 -33 -4 -62 -11 -65 -15 -3 -5 -23 -11 -46 -15 -22 -4 -53 -13 -67
-21 -15 -8 -37 -14 -49 -14 -12 0 -24 -4 -28 -9 -3 -5 -18 -12 -33 -15 l-27
-6 7 -113 c3 -61 7 -122 7 -134 1 -23 1 -23 186 -23 l185 0 2 183 3 182 181 3
181 2 7 -61 c3 -34 6 -99 6 -145 0 -45 4 -85 8 -88 5 -3 16 4 26 16 15 17 20
18 27 7 7 -12 9 -12 9 0 0 8 7 11 20 8 10 -3 21 0 23 7 3 8 10 8 26 -2 12 -7
21 -8 21 -2 0 5 13 10 29 10 16 0 31 6 34 13 3 10 9 10 26 0 25 -16 51 -17 51
-2 0 5 5 7 10 4 6 -3 10 -1 10 4 0 18 18 12 23 -6 4 -17 5 -17 6 0 0 9 6 17
11 17 6 0 10 43 10 110 l0 110 184 0 185 0 5 -42 c4 -24 7 -72 9 -107 l2 -64
115 -3 c137 -4 200 -12 200 -25 0 -5 7 -9 15 -9 8 0 15 7 15 15 0 8 5 15 10
15 6 0 10 42 10 106 l0 106 58 -5 57 -6 -50 11 c-27 6 -52 14 -55 18 -3 4 -39
10 -80 13 -49 4 -61 3 -35 -2 27 -6 -9 -9 -112 -10 l-153 -1 0 30 c0 21 5 30
17 30 9 0 14 2 12 5 -3 2 -68 9 -144 14 -77 6 -168 13 -202 17 -44 5 -63 3
-63 -4z"/>
<path d="M10533 10435 c-18 -18 -33 -35 -33 -39 0 -4 16 9 37 29 20 19 34 37
32 39 -2 2 -19 -11 -36 -29z"/>
<path d="M12450 10449 c0 -5 5 -7 10 -4 6 3 10 8 10 11 0 2 -4 4 -10 4 -5 0
-10 -5 -10 -11z"/>
<path d="M12790 10456 c0 -2 7 -7 16 -10 8 -3 12 -2 9 4 -6 10 -25 14 -25 6z"/>
<path d="M7943 10423 c15 -2 39 -2 55 0 15 2 2 4 -28 4 -30 0 -43 -2 -27 -4z"/>
<path d="M8048 10413 c12 -2 30 -2 40 0 9 3 -1 5 -23 4 -22 0 -30 -2 -17 -4z"/>
<path d="M12420 10396 c0 -8 -6 -21 -14 -28 -7 -8 -17 -25 -21 -38 -4 -14 -11
-27 -16 -30 -4 -3 -10 -19 -13 -35 -5 -24 -4 -26 3 -10 7 15 10 -2 10 -60 l1
-80 -22 43 c-16 31 -19 45 -11 50 7 4 9 13 4 21 -6 9 -10 6 -14 -10 -7 -27 1
-69 13 -69 5 0 11 -13 15 -30 4 -16 11 -30 16 -30 5 0 9 -5 9 -11 0 -14 42
-102 52 -109 3 -3 10 -18 13 -33 4 -15 11 -27 16 -27 5 0 9 -6 9 -12 0 -7 7
-26 16 -43 9 -16 18 -64 21 -105 4 -41 8 -69 10 -62 3 8 27 12 74 12 64 0 85
9 58 25 -5 4 -14 18 -19 31 -7 17 -17 24 -36 24 -23 0 -25 3 -24 38 3 68 2 71
-35 78 l-36 6 3 51 c4 64 35 92 91 82 22 -4 37 -13 37 -21 0 -10 15 -14 60
-14 l60 0 0 -156 c0 -143 1 -155 18 -152 14 3 19 23 30 123 16 146 11 185 -23
185 -28 0 -27 -9 -25 247 l1 121 -160 7 c-88 4 -158 11 -156 16 3 4 1 10 -5
14 -5 3 -10 -1 -10 -9z"/>
<path d="M11875 10369 c-49 -3 -85 -6 -80 -7 6 -1 37 -26 68 -56 51 -48 57
-51 57 -30 0 13 4 24 9 24 5 0 12 12 16 27 3 15 12 31 18 35 20 12 5 13 -88 7z"/>
<path d="M3380 10308 c0 -71 12 -100 31 -81 9 9 20 9 48 -3 20 -9 54 -16 76
-17 22 0 43 -5 46 -10 4 -5 10 0 14 13 6 18 13 21 36 18 16 -3 29 -1 29 4 0 4
7 8 15 8 8 0 15 5 15 11 0 6 8 8 18 5 14 -5 21 2 30 27 7 18 12 45 12 60 l0
27 -185 0 -185 0 0 -62z"/>
<path d="M5635 10360 c-8 -13 5 -13 25 0 13 8 13 10 -2 10 -9 0 -20 -4 -23
-10z"/>
<path d="M10132 10343 c3 -26 8 -29 62 -37 43 -6 60 -5 66 3 4 7 13 12 21 11
28 -4 40 0 33 12 -4 6 -3 8 4 4 6 -3 13 -2 16 3 3 5 15 7 26 4 12 -3 20 0 20
7 0 9 3 10 14 1 7 -6 22 -8 32 -4 35 13 -17 21 -159 22 l-138 1 3 -27z"/>
<path d="M11630 10309 c0 -65 15 -83 16 -19 1 22 7 46 13 54 9 11 7 15 -9 19
-18 5 -20 0 -20 -54z"/>
<path d="M10471 10348 c-1 -10 -5 -18 -11 -18 -5 0 -7 -7 -3 -17 5 -14 8 -12
15 7 5 13 7 28 4 34 -2 6 -5 3 -5 -6z"/>
<path d="M4527 10320 c3 -11 9 -20 15 -20 5 0 4 9 -2 20 -6 11 -12 20 -14 20
-2 0 -2 -9 1 -20z"/>
<path d="M8378 10333 c6 -2 18 -2 25 0 6 3 1 5 -13 5 -14 0 -19 -2 -12 -5z"/>
<path d="M3061 10314 c0 -11 3 -14 6 -6 3 7 2 16 -1 19 -3 4 -6 -2 -5 -13z"/>
<path d="M8433 10323 c9 -2 23 -2 30 0 6 3 -1 5 -18 5 -16 0 -22 -2 -12 -5z"/>
<path d="M8478 10303 c6 -2 18 -2 25 0 6 3 1 5 -13 5 -14 0 -19 -2 -12 -5z"/>
<path d="M3082 10270 c0 -19 2 -27 5 -17 2 9 2 25 0 35 -3 9 -5 1 -5 -18z"/>
<path d="M8528 10293 c7 -3 16 -2 19 1 4 3 -2 6 -13 5 -11 0 -14 -3 -6 -6z"/>
<path d="M4553 10255 c0 -22 2 -30 4 -17 2 12 2 30 0 40 -3 9 -5 -1 -4 -23z"/>
<path d="M10442 10265 c0 -16 2 -22 5 -12 2 9 2 23 0 30 -3 6 -5 -1 -5 -18z"/>
<path d="M3898 10273 c7 -3 16 -2 19 1 4 3 -2 6 -13 5 -11 0 -14 -3 -6 -6z"/>
<path d="M8568 10273 c6 -2 18 -2 25 0 6 3 1 5 -13 5 -14 0 -19 -2 -12 -5z"/>
<path d="M8621 10223 c4 -27 8 -76 8 -111 1 -44 4 -61 12 -56 6 3 15 1 19 -5
4 -7 23 -13 43 -14 20 -1 37 -5 37 -9 0 -5 9 -8 20 -8 11 0 20 -4 20 -10 0 -5
3 -9 8 -9 4 1 53 1 110 0 l102 -1 0 -26 c0 -22 30 -69 30 -47 0 4 4 3 8 -3 4
-7 21 -14 37 -15 17 -2 39 -14 51 -26 11 -12 33 -24 48 -27 16 -3 39 -12 52
-21 48 -31 84 -16 84 37 0 14 5 18 15 14 28 -10 15 11 -23 37 -20 15 -48 28
-62 29 -22 3 -26 -2 -30 -35 -3 -21 -8 -38 -12 -37 -5 0 -17 0 -28 0 -16 0
-20 7 -20 31 0 32 15 69 34 81 13 9 -5 11 -106 8 l-77 -2 -3 53 -3 53 -81 41
c-97 47 -160 75 -174 75 -6 0 -10 5 -10 10 0 6 -8 10 -17 10 -10 0 -31 7 -47
15 -48 25 -54 21 -45 -32z"/>
<path d="M6308 10243 c-10 -2 -18 -9 -18 -14 0 -12 13 -12 26 0 5 5 18 11 29
14 l20 5 -20 0 c-11 0 -28 -2 -37 -5z"/>
<path d="M3086 10164 c-4 -37 -5 -69 -2 -71 2 -3 7 25 11 62 4 36 5 68 3 71
-3 2 -8 -25 -12 -62z"/>
<path d="M4018 10213 c7 -3 16 -2 19 1 4 3 -2 6 -13 5 -11 0 -14 -3 -6 -6z"/>
<path d="M6258 10213 c7 -3 16 -2 19 1 4 3 -2 6 -13 5 -11 0 -14 -3 -6 -6z"/>
<path d="M4050 10195 c0 -8 8 -15 18 -14 10 0 12 3 4 6 -6 2 -10 9 -6 14 3 5
0 9 -5 9 -6 0 -11 -7 -11 -15z"/>
<path d="M6210 10206 c0 -2 7 -6 15 -10 8 -3 15 -1 15 4 0 6 -7 10 -15 10 -8
0 -15 -2 -15 -4z"/>
<path d="M6168 10183 c-10 -2 -18 -8 -18 -13 0 -4 -16 -11 -35 -14 -20 -4 -33
-11 -30 -15 2 -5 -11 -12 -30 -15 -20 -4 -33 -11 -30 -16 5 -7 83 17 95 30 3
3 25 15 50 27 41 21 40 27 -2 16z"/>
<path d="M4551 10133 c0 -23 -5 -43 -10 -45 -5 -1 -11 -14 -14 -28 -2 -14 -2
-19 0 -12 3 6 8 12 13 12 12 0 23 61 17 91 -3 15 -5 8 -6 -18z"/>
<path d="M5950 10075 c-25 -14 -56 -31 -70 -38 -26 -12 -30 -15 -69 -47 -13
-11 -28 -20 -33 -20 -8 0 -19 -8 -51 -36 -7 -6 -22 -14 -34 -18 -12 -4 -24
-13 -27 -21 -6 -16 18 -4 80 42 17 13 34 20 37 16 4 -3 7 -1 7 5 0 7 3 12 8
12 4 0 6 -21 5 -47 l-2 -48 8 49 c8 54 23 68 84 77 28 4 40 1 47 -10 6 -10 10
-11 10 -3 0 6 11 12 25 12 23 0 25 -3 25 -50 0 -30 4 -50 11 -50 7 0 9 -17 4
-52 -3 -29 -8 -90 -11 -135 l-5 -83 53 1 c33 0 46 3 35 8 -17 6 -18 8 -3 21
15 11 21 10 46 -8 16 -12 37 -22 46 -22 15 0 15 3 -4 23 -12 13 -22 26 -22 30
0 13 34 47 47 47 7 0 13 5 13 11 0 6 9 8 21 4 12 -4 19 -3 16 2 -3 5 14 18 39
29 24 10 44 24 44 29 0 6 4 3 10 -5 17 -27 25 1 28 101 l4 99 -186 0 -186 0 0
44 c0 26 5 46 13 49 8 4 7 6 -3 6 -8 1 -35 -10 -60 -24z"/>
<path d="M3056 10059 c-8 -40 -4 -45 10 -14 6 13 8 28 4 35 -4 7 -10 -2 -14
-21z"/>
<path d="M9045 10060 c11 -5 27 -9 35 -9 9 0 8 4 -5 9 -11 5 -27 9 -35 9 -9 0
-8 -4 5 -9z"/>
<path d="M9103 10033 c9 -2 17 -9 17 -14 0 -6 5 -7 11 -3 14 8 -8 24 -31 23
-11 -1 -10 -3 3 -6z"/>
<path d="M4499 10019 c-2 -8 -3 -99 -1 -202 l3 -188 139 2 140 1 40 39 41 40
2 120 c1 65 -2 119 -6 119 -5 0 -5 5 -2 11 4 6 -1 17 -11 24 -14 11 -56 14
-168 15 -126 0 -151 2 -161 16 -9 14 -13 14 -16 3z m336 -305 c-14 -13 -25
-27 -25 -31 0 -5 -9 -16 -20 -26 -27 -23 -25 -8 5 33 13 18 22 37 19 41 -3 5
3 6 12 2 14 -5 16 -3 11 12 -6 15 -5 16 8 5 13 -11 12 -15 -10 -36z"/>
<path d="M3025 9999 c-4 -13 -12 -27 -18 -31 -13 -8 -14 -133 -1 -133 61 3
166 19 170 26 7 11 121 12 126 1 2 -5 18 -12 36 -15 l32 -6 0 79 0 80 -158 0
c-102 0 -162 4 -169 11 -8 8 -13 5 -18 -12z"/>
<path d="M6770 9987 c0 -10 8 -17 18 -17 9 0 13 4 7 8 -5 4 -13 11 -17 16 -5
5 -8 2 -8 -7z"/>
<path d="M4442 9945 c-18 -19 -39 -35 -47 -35 -8 0 -15 -4 -15 -9 0 -5 -14
-13 -31 -16 -23 -5 -28 -10 -18 -16 7 -4 16 -5 19 -1 3 4 21 16 40 26 35 19
108 86 93 86 -4 0 -23 -16 -41 -35z"/>
<path d="M2966 9885 c-4 -15 -5 -30 -1 -33 3 -3 5 2 5 11 0 8 4 17 10 19 5 2
6 9 1 16 -6 10 -10 7 -15 -13z"/>
<path d="M10615 9901 c5 -8 22 -27 39 -42 17 -15 72 -66 121 -114 l90 -87 8
50 c7 44 11 49 30 45 12 -3 -43 28 -123 67 -80 40 -151 78 -159 84 -12 9 -13
8 -6 -3z"/>
<path d="M5630 9871 c0 -5 -10 -13 -22 -17 -13 -4 -25 -10 -28 -14 -6 -9 -98
-80 -104 -80 -14 0 -378 -358 -450 -443 -65 -76 -71 -92 -30 -77 14 6 77 10
140 10 l114 0 0 -165 c0 -95 4 -165 9 -165 5 0 12 -10 14 -22 3 -18 5 -17 6 7
2 35 15 60 33 60 7 0 17 10 23 23 5 12 16 22 24 22 11 0 11 3 0 17 -12 15 -12
16 3 10 11 -4 22 1 31 13 8 11 17 17 22 12 4 -4 4 3 1 15 -6 18 -1 25 24 38
18 9 30 22 27 29 -3 7 4 13 16 14 23 1 47 27 47 49 0 7 12 14 28 14 23 2 24 2
4 6 -12 2 -20 9 -17 14 4 5 -54 9 -144 9 l-151 0 0 145 0 144 38 38 37 38 150
0 150 0 3 -152 c1 -84 5 -153 8 -153 12 0 53 38 47 43 -7 8 16 37 29 37 6 0 8
-7 4 -15 -10 -26 1 -16 23 20 12 21 28 35 40 35 14 0 19 5 15 15 -4 10 0 15
16 15 13 0 19 4 14 11 -3 6 1 10 12 9 32 -4 40 0 24 10 -11 7 -12 10 -2 10 16
0 43 25 35 33 -3 3 6 9 20 12 15 4 32 14 39 22 11 13 13 13 19 -4 6 -14 8 -13
8 10 1 15 6 27 11 27 6 0 10 5 10 10 0 6 -68 10 -185 10 l-185 0 0 118 c0 78
4 122 12 130 9 9 9 12 0 12 -7 0 -12 -4 -12 -9z m-240 -815 c0 -3 -4 -8 -10
-11 -5 -3 -10 -1 -10 4 0 6 5 11 10 11 6 0 10 -2 10 -4z"/>
<path d="M9360 9840 c0 -27 -7 -47 -20 -60 -11 -11 -16 -20 -11 -20 5 0 16 -3
25 -6 12 -5 16 1 16 22 0 45 11 75 24 67 6 -3 2 3 -8 15 -11 12 -21 22 -23 22
-1 0 -3 -18 -3 -40z"/>
<path d="M5823 9863 c9 -2 25 -2 35 0 9 3 1 5 -18 5 -19 0 -27 -2 -17 -5z"/>
<path d="M4276 9851 c-18 -7 -18 -8 -3 -14 9 -3 17 -2 17 3 0 5 8 11 18 13 11
3 12 5 2 5 -8 0 -24 -3 -34 -7z"/>
<path d="M2940 9835 c0 -8 7 -15 16 -15 14 0 14 3 4 15 -7 8 -14 15 -16 15 -2
0 -4 -7 -4 -15z"/>
<path d="M4218 9823 c-10 -2 -18 -8 -18 -13 0 -5 -13 -11 -30 -15 -16 -4 -30
-11 -30 -15 0 -5 -16 -12 -35 -16 -43 -8 -51 -33 -58 -184 -4 -73 -3 -86 2
-44 9 73 15 84 47 84 l24 0 0 -186 0 -185 -89 2 c-88 2 -90 1 -118 -29 -51
-56 -118 -84 -216 -90 -84 -5 -110 -15 -44 -17 18 -1 47 -2 65 -3 l32 -2 0
-83 c0 -81 1 -84 33 -115 l33 -32 152 0 152 0 0 139 c0 76 3 159 6 185 l7 46
108 0 109 0 0 35 c0 19 5 35 11 35 6 0 8 9 4 21 -5 13 -2 25 6 31 11 7 11 11
2 14 -9 4 -9 11 -1 29 13 30 38 41 39 17 0 -13 3 -11 9 6 5 12 16 22 25 22 8
0 15 6 15 13 0 9 2 9 8 -1 11 -17 32 52 32 107 l0 41 -130 1 c-71 1 -134 3
-140 4 -5 1 -30 3 -55 4 l-46 1 3 67 3 68 40 21 c22 12 43 19 48 17 4 -2 7 0
7 6 0 5 8 12 18 14 11 3 12 5 2 5 -8 0 -23 -2 -32 -5z"/>
<path d="M12501 9653 c0 -12 -4 -23 -8 -25 -5 -1 -17 -21 -28 -42 -11 -22 -41
-61 -67 -87 -27 -25 -48 -50 -48 -55 0 -5 5 -2 10 6 7 10 10 -10 11 -67 1 -46
3 -87 4 -93 1 -5 3 -17 4 -25 1 -13 29 -15 185 -15 l184 0 1 184 2 184 -120 7
c-111 7 -120 9 -124 29 l-4 21 -2 -22z"/>
<path d="M9636 9623 l-29 -5 41 -24 c23 -14 42 -29 42 -35 0 -5 5 -9 11 -9 6
0 18 -7 26 -16 13 -12 18 -13 24 -3 5 9 -7 28 -37 56 -24 24 -45 42 -47 42 -1
-1 -15 -4 -31 -6z"/>
<path d="M10935 9620 c-4 -6 -12 -7 -18 -4 -7 4 -5 1 3 -7 8 -8 19 -20 26 -28
9 -11 10 -7 6 17 -5 34 -7 38 -17 22z"/>
<path d="M10288 9545 c6 -11 20 -31 33 -44 36 -38 89 -110 89 -121 0 -6 4 -10
9 -10 7 0 129 -178 140 -205 2 -5 10 -16 18 -23 7 -7 13 -20 13 -28 0 -8 4
-14 9 -14 5 0 14 -12 20 -27 10 -27 31 -63 41 -73 3 -3 25 -43 49 -90 24 -47
41 -75 38 -63 -5 21 0 23 55 29 33 4 56 10 50 13 -5 3 -35 44 -67 91 -31 47
-61 87 -66 88 -5 2 -9 8 -9 12 0 5 -14 24 -31 42 -17 18 -37 46 -45 61 -25 47
-51 67 -88 67 -37 0 -46 12 -46 62 0 24 -19 49 -112 141 -61 62 -106 103 -100
92z"/>
<path d="M4021 9430 c0 -37 2 -41 9 -22 6 13 6 31 0 45 -7 18 -9 14 -9 -23z"/>
<path d="M11730 9417 c-91 -96 -130 -142 -130 -152 0 -5 5 -3 10 5 8 13 10 12
10 -4 0 -12 -5 -16 -16 -12 -13 5 -90 -46 -114 -75 -3 -4 -16 -10 -30 -14 -14
-4 -28 -12 -31 -18 -4 -5 -47 -12 -96 -14 l-89 -6 4 -30 c4 -23 30 -57 97
-124 l93 -93 89 0 90 0 6 122 c4 66 7 150 7 185 l0 63 185 0 185 0 0 -86 c0
-49 4 -83 9 -79 5 3 12 -3 14 -12 4 -14 5 -13 6 5 0 12 7 22 14 22 8 0 26 14
41 30 15 17 32 28 38 24 6 -4 24 -7 39 -6 16 0 29 -3 29 -7 0 -5 17 -9 38 -9
20 -1 51 -5 67 -10 65 -18 70 -14 73 61 l3 67 -186 0 -185 0 0 80 c0 73 2 80
19 80 11 0 22 4 25 9 3 5 -25 12 -62 16 -37 4 -74 10 -82 15 -8 4 -39 10 -68
13 l-52 6 -50 -52z"/>
<path d="M3142 9450 c10 -6 25 -7 40 -1 20 9 18 10 -17 10 -31 0 -36 -2 -23
-9z"/>
<path d="M2766 9345 l95 -95 70 0 69 0 1 -57 c1 -32 1 -62 0 -66 -1 -5 3 -6 9
-2 6 3 10 -4 11 -17 0 -21 1 -21 8 -4 5 14 10 16 15 8 9 -15 173 -17 178 -1 4
13 52 19 69 8 8 -4 19 -3 26 3 9 7 17 7 27 -1 19 -16 26 5 26 75 l0 54 -185 0
-185 0 0 85 0 84 33 5 c17 3 46 8 62 10 17 2 -13 2 -65 -1 -52 -3 -103 -9
-112 -14 -27 -14 -152 -10 -191 6 -20 8 -41 15 -46 15 -5 0 33 -43 85 -95z"/>
<path d="M12300 9431 c-14 -4 -20 -10 -15 -13 6 -3 21 0 35 8 27 14 20 16 -20
5z"/>
<path d="M12113 9398 c38 -4 90 -5 115 0 37 6 22 8 -68 8 -109 1 -111 0 -47
-8z"/>
<path d="M7290 9391 c-8 -5 -40 -12 -70 -16 -30 -4 -66 -11 -80 -17 -23 -10
-25 -15 -21 -60 l3 -50 -130 3 c-147 3 -168 -3 -251 -71 -13 -11 -30 -20 -36
-20 -7 0 -15 -7 -19 -15 -3 -8 -13 -15 -21 -15 -9 0 -13 -4 -10 -10 3 -5 1
-10 -6 -10 -13 0 -59 -41 -59 -54 0 -5 11 3 25 18 13 14 28 26 33 26 5 0 19
11 32 25 13 14 25 23 28 20 2 -2 12 3 21 12 15 15 16 6 19 -130 l3 -147 182 2
182 3 6 165 c3 91 7 173 8 183 1 15 17 17 186 17 l185 0 0 -86 c0 -93 12 -120
44 -102 9 5 24 7 32 4 8 -3 14 1 14 9 0 18 26 20 33 3 4 -10 8 -10 15 1 6 9
25 12 56 10 25 -2 48 0 50 6 3 6 8 5 13 -2 7 -10 16 -10 42 0 29 11 34 10 46
-7 13 -18 14 -17 19 5 3 13 7 53 8 89 l3 65 128 3 c80 2 127 -1 127 -7 0 -6 7
-8 15 -4 11 4 1 13 -32 29 -26 13 -54 24 -60 24 -7 0 -13 5 -13 10 0 6 -10 10
-22 10 -13 0 -36 7 -53 16 -16 8 -52 17 -80 19 -27 3 -42 2 -32 -1 13 -4 17
-16 17 -50 l0 -44 -185 0 -185 0 0 64 c0 42 4 65 13 68 6 3 37 4 67 2 30 -1
62 2 70 7 9 5 -58 8 -165 8 -99 0 -187 -3 -195 -8z"/>
<path d="M4010 9362 c0 -12 -4 -22 -9 -22 -5 0 -12 -13 -16 -30 -4 -16 -11
-30 -16 -30 -5 0 -9 -4 -9 -10 0 -21 20 -9 26 15 3 14 10 25 14 25 10 0 24 59
16 67 -3 4 -6 -3 -6 -15z"/>
<path d="M7730 9370 c30 -4 60 -9 65 -10 6 -1 17 -1 25 0 25 4 -62 19 -105 18
-35 -1 -33 -2 15 -8z"/>
<path d="M7050 9336 c0 -10 28 -13 41 -5 10 6 7 9 -13 9 -16 0 -28 -2 -28 -4z"/>
<path d="M7028 9313 c7 -3 16 -2 19 1 4 3 -2 6 -13 5 -11 0 -14 -3 -6 -6z"/>
<path d="M6980 9301 c0 -5 -18 -12 -41 -16 -30 -5 -38 -10 -30 -18 8 -8 14 -8
23 1 7 7 19 12 28 12 9 0 25 7 36 15 17 13 17 14 2 15 -10 0 -18 -4 -18 -9z"/>
<path d="M3377 9270 c3 -11 14 -20 24 -20 18 0 18 1 2 20 -10 11 -21 20 -24
20 -4 0 -5 -9 -2 -20z"/>
<path d="M8175 9220 c27 -12 43 -12 25 0 -8 5 -22 9 -30 9 -10 0 -8 -3 5 -9z"/>
<path d="M4926 9184 c-9 -8 -16 -19 -16 -24 0 -5 -12 -23 -27 -39 -38 -40 -48
-53 -56 -71 -4 -8 -14 -24 -22 -36 -14 -19 -13 -22 5 -39 20 -18 21 -18 18 16
-3 28 0 34 17 34 14 0 21 -9 26 -30 3 -20 7 -4 10 48 3 61 8 81 22 88 9 6 17
15 17 21 0 6 7 20 17 30 20 22 11 24 -11 2z"/>
<path d="M8248 9118 c4 -80 19 -108 59 -108 12 0 23 -4 23 -10 0 -5 6 -10 13
-10 6 -1 30 -9 52 -20 22 -11 43 -19 48 -20 4 0 25 -11 47 -25 22 -14 48 -25
57 -25 15 0 16 -2 3 -10 -12 -8 -9 -9 11 -8 19 2 25 7 21 16 -6 17 -192 202
-202 202 -4 0 -18 9 -31 20 -13 11 -28 23 -34 27 -15 12 -64 43 -67 43 -2 0
-1 -33 0 -72z"/>
<path d="M11158 9158 c5 -5 16 -8 23 -6 8 3 3 7 -10 11 -17 4 -21 3 -13 -5z"/>
<path d="M3568 9133 c6 -2 18 -2 25 0 6 3 1 5 -13 5 -14 0 -19 -2 -12 -5z"/>
<path d="M11198 9133 c6 -2 18 -2 25 0 6 3 1 5 -13 5 -14 0 -19 -2 -12 -5z"/>
<path d="M6501 8989 c-34 -33 -61 -65 -61 -70 0 -5 16 9 36 31 20 22 52 53 70
70 19 16 30 30 25 30 -5 0 -37 -27 -70 -61z"/>
<path d="M8997 9003 c4 -10 9 -20 12 -23 4 -3 12 -16 19 -30 16 -32 35 -64 44
-70 4 -3 12 -17 18 -30 9 -22 10 -22 6 -3 -3 17 2 23 24 28 l28 6 -70 70 c-71
69 -93 84 -81 52z"/>
<path d="M4764 8945 c-4 -9 1 -21 11 -29 20 -15 12 -38 -12 -34 -9 2 -18 -1
-19 -7 -3 -6 16 -9 46 -7 27 2 50 6 50 9 0 3 -16 23 -35 45 -28 30 -37 35 -41
23z"/>
<path d="M6404 8880 c-37 -37 -68 -90 -44 -75 6 4 10 -49 10 -149 l0 -156 -83
0 c-48 0 -88 5 -94 11 -9 9 -13 2 -18 -25 -4 -20 -11 -39 -16 -41 -4 -3 -11
-26 -15 -50 -3 -25 -10 -45 -14 -45 -16 0 -33 -156 -37 -350 -2 -112 -1 -201
3 -197 4 4 7 58 5 119 -1 62 1 131 5 155 l6 43 53 0 c28 0 86 3 128 6 l77 7 0
168 c0 92 3 174 6 183 5 14 28 16 146 16 110 0 143 3 154 15 9 8 12 20 8 26
-5 8 -3 9 5 5 8 -5 14 0 18 14 4 16 8 18 14 8 6 -9 9 -3 9 17 0 22 3 26 9 16
6 -9 10 40 10 127 l2 142 -43 1 c-24 1 -47 2 -53 4 -5 1 -61 3 -123 3 -73 1
-111 6 -107 12 10 16 0 12 -21 -10z"/>
<path d="M4910 8865 c0 -9 -10 -19 -21 -22 -19 -5 -21 -11 -15 -57 3 -28 6
-104 6 -168 l0 -118 50 0 c28 0 50 4 50 9 0 5 11 12 24 15 16 4 23 12 22 28 0
14 4 22 12 21 11 -3 17 10 13 31 -1 4 7 16 18 26 12 9 18 20 15 23 -3 3 5 13
19 22 25 16 41 48 37 73 0 8 15 27 34 44 20 17 33 34 30 39 -3 5 -1 9 5 9 5 0
12 -8 14 -17 3 -10 5 -3 6 15 l1 32 -144 0 c-79 0 -151 3 -160 6 -11 4 -16 1
-16 -11z"/>
<path d="M4130 8850 c0 -20 11 -26 24 -12 4 4 12 8 17 8 22 3 23 6 4 14 -33
14 -45 11 -45 -10z"/>
<path d="M4253 8862 c-7 -4 -9 -13 -4 -21 6 -9 10 -7 14 8 3 12 4 21 4 21 -1
0 -7 -4 -14 -8z"/>
<path d="M11630 8840 c0 -30 14 -47 25 -30 4 6 11 8 16 5 5 -4 9 -1 9 4 0 6
10 11 23 11 34 0 112 26 100 33 -6 4 -47 6 -92 6 l-81 -1 0 -28z"/>
<path d="M4226 8804 c-4 -14 -5 -28 -3 -31 3 -2 8 8 11 23 4 14 5 28 3 31 -3
2 -8 -8 -11 -23z"/>
<path d="M9111 8820 c0 -8 4 -24 9 -35 5 -13 9 -14 9 -5 0 8 -4 24 -9 35 -5
13 -9 14 -9 5z"/>
<path d="M10761 8820 c0 -8 4 -24 9 -35 5 -13 9 -14 9 -5 0 8 -4 24 -9 35 -5
13 -9 14 -9 5z"/>
<path d="M10880 8794 c0 -74 -13 -173 -21 -168 -10 6 -10 -20 0 -56 6 -21 14
-26 51 -30 39 -4 45 -8 45 -30 0 -21 -6 -26 -32 -28 -31 -3 -31 -4 -17 -30 8
-15 14 -37 14 -49 0 -13 5 -23 10 -23 6 0 10 -7 10 -15 0 -8 5 -15 10 -15 6 0
10 16 10 35 0 31 3 35 25 35 14 0 28 1 33 2 28 7 0 -107 -31 -124 -21 -12 -22
-17 -15 -55 l9 -42 52 5 c28 3 55 11 59 17 11 17 6 59 -9 75 -7 7 -13 20 -13
29 0 20 -52 137 -63 142 -21 8 33 30 76 31 l47 0 0 36 c0 58 -13 72 -76 80
l-55 6 -30 62 c-32 64 -70 131 -82 142 -4 4 -7 -10 -7 -32z"/>
<path d="M6331 8788 c-1 -9 -7 -23 -15 -30 -7 -8 -17 -25 -20 -38 -5 -15 3 -8
19 18 15 23 24 48 22 55 -3 7 -6 5 -6 -5z"/>
<path d="M4201 8754 c0 -11 3 -14 6 -6 3 7 2 16 -1 19 -3 4 -6 -2 -5 -13z"/>
<path d="M9141 8760 c0 -8 4 -24 9 -35 5 -13 9 -14 9 -5 0 8 -4 24 -9 35 -5
13 -9 14 -9 5z"/>
<path d="M10791 8760 c0 -8 4 -24 9 -35 5 -13 9 -14 9 -5 0 8 -4 24 -9 35 -5
13 -9 14 -9 5z"/>
<path d="M9171 8694 c0 -11 3 -14 6 -6 3 7 2 16 -1 19 -3 4 -6 -2 -5 -13z"/>
<path d="M6264 8675 c-3 -14 -10 -25 -14 -25 -4 0 -11 -12 -15 -27 -3 -15 -11
-30 -16 -33 -5 -3 -10 -19 -13 -35 -2 -17 -1 -22 1 -12 2 9 9 17 14 17 5 0 9
3 8 8 -2 15 14 52 22 52 5 0 8 3 7 8 -2 11 14 46 25 53 5 4 5 9 -2 13 -6 4
-13 -4 -17 -19z"/>
<path d="M10821 8690 c0 -8 4 -24 9 -35 5 -13 9 -14 9 -5 0 8 -4 24 -9 35 -5
13 -9 14 -9 5z"/>
<path d="M9181 8654 c0 -11 3 -14 6 -6 3 7 2 16 -1 19 -3 4 -6 -2 -5 -13z"/>
<path d="M4590 8641 c0 -6 4 -13 10 -16 6 -3 7 1 4 9 -7 18 -14 21 -14 7z"/>
<path d="M9202 8615 c0 -11 4 -31 8 -45 6 -20 8 -21 8 -5 0 11 -4 31 -8 45 -6
20 -8 21 -8 5z"/>
<path d="M9380 8533 c0 -27 4 -33 20 -33 17 0 19 3 11 18 -27 46 -31 48 -31
15z"/>
<path d="M9237 8495 c2 -27 8 -54 13 -60 5 -6 14 -42 20 -80 6 -39 15 -95 20
-125 4 -30 9 -91 11 -135 2 -72 3 -75 8 -30 5 45 9 50 34 53 l27 3 0 -185 0
-186 -30 0 -30 0 3 58 c1 31 0 77 -4 102 -5 35 -6 23 -8 -50 -1 -52 -7 -117
-12 -145 -5 -27 -14 -81 -20 -120 -5 -38 -13 -79 -18 -90 -11 -25 -28 -119
-24 -131 2 -5 34 -8 72 -6 l68 4 7 -32 c3 -18 6 -50 6 -71 0 -36 2 -39 28 -39
27 0 61 -25 62 -46 1 -5 17 -19 36 -31 40 -26 38 -21 -23 60 -48 64 -52 77
-22 77 12 0 39 -20 64 -47 32 -36 43 -43 42 -28 -1 11 -9 25 -18 32 -21 16
-13 58 15 81 42 32 34 37 -74 42 l-105 5 -3 188 -2 187 119 0 c119 0 120 0
115 23 -3 12 -5 28 -5 35 3 29 1 51 -9 117 -6 39 -8 81 -5 94 4 14 1 27 -6 32
-7 4 -13 20 -14 36 0 27 -2 28 -55 30 -30 2 -74 5 -96 8 l-42 6 -7 184 -7 185
-63 0 c-58 0 -64 2 -68 23 -2 12 -2 0 0 -28z"/>
<path d="M4550 8525 c0 -8 -4 -15 -8 -15 -5 0 -17 -19 -27 -42 -17 -37 -19
-63 -16 -190 l3 -148 -49 0 c-43 0 -49 -3 -60 -27 -6 -16 -14 -48 -18 -73 -4
-25 -11 -49 -15 -55 -4 -5 -11 -37 -15 -70 -4 -33 -11 -67 -15 -75 -4 -8 -10
-64 -13 -125 -4 -70 -3 -90 2 -55 15 103 12 100 102 100 l79 0 0 -185 0 -185
76 0 c64 0 73 2 62 14 -16 16 -15 79 1 84 6 2 11 8 11 14 0 6 -8 7 -17 4 -17
-6 -17 -5 0 8 11 9 17 27 17 55 0 22 4 41 10 41 5 0 7 7 4 15 -4 8 -1 22 6 30
10 12 10 15 -1 15 -10 0 -10 3 -1 12 7 7 12 20 12 29 0 10 8 20 18 22 16 4 16
5 0 6 -10 0 -18 6 -18 11 0 6 -37 10 -90 10 l-90 0 0 184 0 183 68 6 c37 4
119 7 182 8 63 1 107 3 98 6 -19 5 -26 53 -7 53 5 0 7 -4 4 -10 -3 -5 -2 -10
3 -10 13 0 18 52 21 203 l2 127 -160 0 c-154 0 -159 1 -154 20 3 11 3 20 -1
20 -3 0 -6 -7 -6 -15z"/>
<path d="M4465 8324 c-3 -20 -4 -39 -1 -42 3 -3 6 4 6 16 0 11 5 24 10 27 12
8 13 35 1 35 -5 0 -12 -16 -16 -36z"/>
<path d="M4435 8229 c-4 -22 -4 -43 -1 -46 3 -4 6 4 6 16 0 12 5 31 10 41 6
11 6 21 1 24 -5 4 -12 -12 -16 -35z"/>
<path d="M11006 8140 c3 -36 9 -74 14 -85 9 -20 22 -90 42 -225 6 -41 15 -77
19 -80 5 -3 11 -73 15 -155 6 -105 10 -140 15 -115 4 19 6 51 4 70 -2 19 -7
72 -11 118 l-7 82 77 0 76 0 0 -185 0 -185 79 0 c74 0 79 1 74 20 -3 11 -9 20
-14 20 -4 0 -7 22 -6 49 0 27 -5 56 -12 64 -8 11 -9 17 -1 22 7 4 8 11 2 18
-11 15 -23 60 -28 111 -5 51 -19 66 -60 66 l-34 0 0 158 c0 200 -4 211 -80
213 -30 0 -77 4 -105 7 -47 7 -50 9 -57 42 -4 19 -4 6 -2 -30z"/>
<path d="M4410 8161 c0 -25 6 -27 13 -6 4 8 2 17 -3 20 -6 4 -10 -3 -10 -14z"/>
<path d="M6380 7935 c1 -142 4 -185 13 -185 9 0 13 15 12 45 -1 25 2 45 6 45
4 0 4 14 -1 30 -5 18 -5 30 1 30 5 0 9 14 9 32 0 17 8 40 17 50 15 17 15 20 3
28 -10 7 -11 10 -2 10 6 0 12 12 12 28 0 17 8 32 20 40 31 19 15 32 -40 32
l-50 0 0 -185z"/>
<path d="M6109 7770 c-5 -30 13 -160 35 -245 27 -109 39 -150 46 -155 4 -3 12
-25 18 -50 l11 -45 -6 46 -5 46 81 7 81 7 0 185 0 184 -124 0 c-121 0 -125 1
-128 23 -4 21 -4 21 -9 -3z"/>
<path d="M4292 7490 c0 -86 1 -90 9 -44 5 29 5 71 0 95 -7 37 -9 29 -9 -51z"/>
<path d="M11121 7404 c0 -11 -3 -23 -6 -25 -2 -3 -7 -120 -11 -259 -6 -243 -2
-315 10 -185 2 33 5 61 5 63 1 1 30 2 66 2 l65 0 0 -185 0 -185 91 0 c80 0 90
2 79 15 -10 12 -10 18 -1 29 9 11 9 19 -1 36 -9 13 -10 23 -3 28 6 4 12 63 14
135 l3 127 -91 0 -91 0 0 184 c0 206 4 196 -75 196 -37 0 -44 3 -48 23 -4 20
-4 20 -6 1z"/>
<path d="M4284 7381 c-7 -7 -3 -286 5 -381 5 -47 9 -75 11 -62 1 12 4 27 5 32
1 6 3 15 4 20 0 6 40 10 96 10 l95 0 0 -185 0 -185 58 0 c49 0 59 3 59 18 0 9
-5 20 -11 24 -15 10 -16 290 -2 300 7 5 4 8 -6 8 -10 0 -18 5 -18 10 0 6 -18
10 -40 10 l-40 0 0 185 0 185 -27 1 c-16 0 -63 4 -106 8 -43 3 -80 5 -83 2z"/>
<path d="M6380 7238 c0 -73 -3 -157 -7 -186 -5 -46 -9 -53 -24 -49 -14 4 -19
0 -19 -14 0 -10 4 -19 9 -19 5 0 12 -13 16 -30 4 -16 10 -30 14 -30 5 0 13
-15 19 -32 7 -18 9 -22 6 -8 -3 14 -8 49 -11 78 l-5 52 65 0 c36 0 68 4 71 8
3 5 -1 20 -9 35 -20 39 -44 127 -40 148 2 10 0 19 -5 19 -9 0 -23 71 -24 120
-1 28 -12 40 -38 40 -16 0 -18 -13 -18 -132z"/>
<path d="M9206 7310 c-4 -29 -5 -55 -1 -58 3 -3 5 5 5 17 0 12 5 31 10 42 7
12 7 25 2 35 -7 12 -11 2 -16 -36z"/>
<path d="M6232 7265 c0 -11 4 -31 8 -45 6 -20 8 -21 8 -5 0 11 -4 31 -8 45 -6
20 -8 21 -8 5z"/>
<path d="M9175 7209 c-4 -22 -4 -43 -1 -46 3 -4 6 4 6 16 0 12 5 31 10 41 6
11 6 21 1 24 -5 4 -12 -12 -16 -35z"/>
<path d="M6262 7175 c0 -11 3 -29 8 -40 11 -25 11 1 0 35 -6 20 -8 21 -8 5z"/>
<path d="M9386 7181 c-10 -15 5 -40 20 -34 18 7 18 43 0 43 -8 0 -17 -4 -20
-9z"/>
<path d="M9145 7124 c-8 -47 -2 -52 11 -8 6 19 8 37 4 39 -4 3 -11 -11 -15
-31z"/>
<path d="M9441 7121 c-14 -9 -9 -41 7 -41 15 0 34 28 27 40 -8 12 -16 13 -34
1z"/>
<path d="M6292 7105 c0 -11 3 -29 8 -40 11 -25 11 1 0 35 -6 20 -8 21 -8 5z"/>
<path d="M9525 7079 c-6 -12 -27 -31 -48 -43 l-38 -21 -29 33 -30 32 0 -40 0
-40 74 0 c65 0 74 2 71 18 -1 9 0 22 4 27 6 11 13 55 9 55 -2 0 -8 -10 -13
-21z"/>
<path d="M9116 7035 c-4 -19 -11 -35 -16 -35 -4 0 -11 -13 -15 -30 -4 -16 -11
-30 -16 -30 -5 0 -9 -8 -9 -17 0 -11 3 -14 8 -7 13 20 54 36 77 30 13 -3 33
-22 45 -41 29 -47 21 -80 -25 -102 -31 -15 -36 -15 -60 1 -15 10 -32 31 -39
47 -11 26 -14 28 -26 15 -7 -10 -8 -16 -2 -16 15 0 52 -63 52 -88 0 -21 -72
-86 -84 -75 -3 3 -6 -8 -6 -26 0 -30 -2 -32 -32 -29 -28 3 -37 -3 -61 -35 -16
-22 -27 -40 -25 -42 2 -1 37 -5 78 -8 41 -3 67 -3 58 -1 -13 4 -18 16 -18 38
l0 33 113 6 c61 4 145 7 185 7 l72 0 0 160 c0 155 -1 160 -19 151 -15 -8 -25
-6 -46 11 l-28 21 12 -21 c16 -30 14 -59 -5 -66 -19 -7 -131 85 -126 103 1 6
-8 11 -19 11 -22 0 -22 8 -4 53 4 9 3 17 -3 17 -5 0 -13 -16 -16 -35z"/>
<path d="M9210 6980 c28 -21 33 -20 24 4 -3 9 -16 16 -28 16 -20 0 -20 -1 4
-20z"/>
<path d="M9356 6985 c4 -8 8 -15 10 -15 2 0 4 7 4 15 0 8 -4 15 -10 15 -5 0
-7 -7 -4 -15z"/>
<path d="M4312 6860 c0 -62 14 -176 18 -145 3 22 3 30 -9 130 l-8 70 -1 -55z"/>
<path d="M9107 6903 c-13 -13 -7 -40 13 -58 19 -17 22 -17 36 -3 15 14 14 18
-1 42 -17 25 -35 33 -48 19z"/>
<path d="M11093 6805 c0 -33 2 -45 4 -27 2 18 2 45 0 60 -2 15 -4 0 -4 -33z"/>
<path d="M9011 6801 c-18 -12 -10 -55 12 -59 9 -2 20 3 23 12 8 21 -18 57 -35
47z"/>
<path d="M6470 6735 c0 -5 5 -17 10 -25 5 -8 10 -10 10 -5 0 6 -5 17 -10 25
-5 8 -10 11 -10 5z"/>
<path d="M11071 6695 c1 -46 1 -48 11 -22 7 20 7 35 0 50 -9 18 -11 14 -11
-28z"/>
<path d="M4347 6616 c2 -44 8 -85 12 -90 5 -6 12 -33 16 -61 4 -27 11 -54 15
-60 5 -5 11 -28 15 -50 4 -22 11 -44 15 -50 4 -5 11 -28 15 -50 5 -32 9 -36
16 -22 6 9 19 17 29 17 19 0 20 8 20 184 l0 183 -37 7 c-21 3 -55 6 -75 6 -34
0 -37 3 -41 33 -3 17 -3 -4 0 -47z"/>
<path d="M6500 6686 c0 -8 4 -17 9 -20 5 -4 7 3 4 14 -6 23 -13 26 -13 6z"/>
<path d="M6537 6623 c4 -10 13 -24 20 -31 7 -7 13 -19 13 -27 0 -7 7 -15 15
-19 8 -3 15 -10 15 -16 0 -6 13 -25 30 -43 16 -18 30 -36 30 -40 0 -4 10 -18
23 -30 13 -12 33 -35 45 -51 l22 -29 0 77 c0 42 -4 76 -9 76 -7 0 -25 32 -61
110 -5 10 -29 17 -69 22 -33 4 -65 10 -71 13 -6 4 -7 -1 -3 -12z"/>
<path d="M11055 6610 c-3 -14 -12 -56 -20 -95 -22 -116 -35 -169 -44 -186 -5
-9 -12 -42 -15 -75 -3 -33 -2 -48 2 -34 8 25 9 25 140 28 l132 3 0 -151 0
-151 37 36 c25 24 43 34 57 31 12 -3 9 0 -6 6 -27 11 -39 38 -18 38 6 0 8 11
4 25 -4 15 -2 25 5 25 6 0 11 18 11 44 0 26 6 48 15 56 15 13 11 35 -6 25 -5
-4 -9 -1 -9 4 0 6 -20 11 -45 11 l-45 0 0 185 c0 102 -1 185 -2 186 -2 0 -44
4 -95 7 l-92 7 -6 -25z"/>
<path d="M9388 6428 c5 -5 16 -8 23 -6 8 3 3 7 -10 11 -17 4 -21 3 -13 -5z"/>
<path d="M4498 6188 c-3 -111 0 -125 45 -217 l11 -23 8 29 c4 16 23 44 42 62
35 34 36 34 56 16 26 -24 25 -39 -5 -63 -30 -24 -31 -32 -5 -65 11 -14 18 -32
14 -40 -8 -21 85 -10 110 13 18 17 18 19 -5 49 -13 18 -25 27 -27 22 -2 -6 -8
-8 -13 -5 -6 3 -2 12 8 20 11 8 12 13 4 12 -13 -3 -44 78 -35 93 2 4 0 9 -6
11 -5 1 -13 31 -16 66 -5 42 -11 62 -20 62 -8 0 -14 5 -14 10 0 6 -32 10 -75
10 l-75 0 -2 -62z m272 -258 c8 -16 8 -20 -3 -20 -8 0 -17 9 -20 20 -3 11 -1
20 4 20 4 0 13 -9 19 -20z"/>
<path d="M6857 6230 c10 -11 21 -20 26 -20 5 0 22 -13 39 -30 16 -16 33 -30
38 -30 5 0 -14 23 -42 50 -28 28 -56 50 -64 50 -11 0 -10 -5 3 -20z"/>
<path d="M4462 6200 c0 -14 2 -19 5 -12 2 6 2 18 0 25 -3 6 -5 1 -5 -13z"/>
<path d="M10946 6159 c-4 -23 -4 -44 -1 -47 3 -3 5 2 5 11 0 10 6 26 12 37 9
14 9 23 2 30 -8 8 -13 0 -18 -31z"/>
<path d="M6288 6185 c-2 -3 -54 -10 -114 -15 -60 -6 -126 -18 -147 -25 -20 -8
-50 -15 -65 -15 -19 0 -23 -3 -13 -9 7 -5 22 -6 32 -4 18 5 19 -2 19 -116 l0
-121 185 0 185 0 1 73 c0 39 4 103 8 142 6 51 4 73 -5 82 -12 13 -75 18 -86 8z"/>
<path d="M8595 6143 c-75 -88 -329 -333 -344 -333 -4 0 -41 -22 -82 -50 -40
-27 -80 -50 -86 -50 -7 0 -13 -4 -13 -9 0 -5 -13 -12 -30 -16 -16 -4 -30 -11
-30 -16 0 -5 -5 -9 -11 -9 -7 0 -30 -9 -53 -19 -88 -41 -115 -51 -137 -51 -18
0 -20 -3 -11 -12 10 -10 17 -10 32 0 33 20 40 14 40 -33 l0 -45 -140 0 c-115
0 -140 3 -140 14 0 8 10 17 23 19 19 4 18 4 -5 6 -22 1 -28 -4 -28 -18 0 -16
-8 -20 -37 -23 l-38 -3 -3 -101 c-3 -81 0 -103 12 -114 9 -7 16 -10 16 -6 0 4
11 -1 25 -10 14 -9 34 -14 45 -11 11 3 20 1 20 -3 0 -5 8 -7 18 -6 9 2 21 -2
25 -8 6 -8 10 -8 13 0 7 17 79 -1 141 -36 32 -19 50 -24 47 -16 -3 8 -12 17
-20 20 -20 8 -17 24 4 22 15 -1 18 13 23 114 4 63 7 125 8 138 1 22 1 22 186
22 l185 0 0 -84 c0 -79 12 -115 29 -89 5 8 44 33 61 39 3 1 15 5 28 9 12 4 22
11 22 16 0 5 6 8 13 7 6 -2 11 3 9 10 -2 10 22 17 49 14 4 -1 17 10 29 23 13
14 33 26 44 26 17 1 18 2 4 6 -10 2 -18 9 -18 14 0 5 -59 9 -135 9 l-135 0 0
145 c0 157 -2 151 63 202 25 19 40 21 166 22 77 1 142 -2 145 -7 3 -5 6 -77 7
-160 1 -142 10 -195 25 -138 3 13 12 27 21 30 8 4 11 11 7 18 -5 9 -3 9 9 -1
15 -12 17 -11 17 3 0 11 5 14 12 10 6 -4 8 -3 5 3 -3 5 10 25 29 44 20 19 43
42 52 52 9 9 20 17 25 17 20 0 35 26 25 45 -9 15 -8 17 5 12 9 -3 18 1 21 9 3
9 10 12 16 9 5 -3 10 1 10 10 0 8 7 18 15 21 43 17 -1 24 -142 24 l-158 0 5
157 c3 87 5 159 5 160 0 1 -18 -19 -40 -44z m-934 -735 c1 -18 1 -40 0 -48 -3
-27 -42 -50 -82 -50 -35 0 -39 3 -39 25 0 18 5 25 19 25 38 0 51 11 51 46 0
30 3 34 25 34 21 0 25 -5 26 -32z"/>
<path d="M4470 6154 c0 -8 5 -12 10 -9 6 4 8 11 5 16 -9 14 -15 11 -15 -7z"/>
<path d="M8693 6163 c26 -2 68 -2 95 0 26 2 4 3 -48 3 -52 0 -74 -1 -47 -3z"/>
<path d="M8840 6156 c0 -8 48 -12 66 -5 13 5 7 8 -23 8 -24 1 -43 -1 -43 -3z"/>
<path d="M8968 6133 l32 -4 0 -125 0 -124 184 0 184 0 7 49 c6 43 9 48 28 45
19 -4 18 -3 -3 6 -13 6 -27 14 -30 18 -6 8 -54 32 -125 62 -125 53 -190 72
-255 75 -30 1 -40 1 -22 -2z"/>
<path d="M5860 6100 c-26 -8 -26 -9 3 -15 9 -2 17 1 17 5 0 5 15 11 33 13 32
4 32 4 2 4 -16 1 -41 -3 -55 -7z"/>
<path d="M10915 6064 c-3 -20 -4 -39 -1 -42 3 -3 6 4 6 16 0 11 5 24 10 27 12
8 13 35 1 35 -5 0 -12 -16 -16 -36z"/>
<path d="M5780 6071 c-20 -5 -22 -8 -9 -13 9 -4 20 -3 25 2 5 4 18 10 29 13
l20 5 -20 0 c-11 0 -31 -3 -45 -7z"/>
<path d="M5718 6043 c-10 -2 -18 -8 -18 -13 0 -5 -13 -11 -30 -15 -16 -4 -30
-11 -30 -16 0 -5 -7 -9 -16 -9 -23 0 -94 -39 -143 -80 -13 -11 -28 -20 -33
-20 -4 0 -25 -18 -47 -40 -21 -22 -42 -40 -46 -40 -15 0 -255 -252 -255 -267
0 -3 -9 -16 -20 -30 -25 -32 -26 -52 -2 -30 14 13 38 17 95 17 l77 0 0 -185 0
-185 68 1 c41 0 60 3 48 8 -14 5 -16 10 -8 15 7 4 12 16 12 27 0 13 7 19 24
19 19 0 26 7 31 30 4 17 11 30 15 30 5 0 7 7 4 15 -4 10 0 15 14 15 27 0 37
17 15 23 -17 4 -17 5 0 6 9 0 17 6 17 11 0 6 7 10 15 10 8 0 15 7 15 16 0 10
6 14 15 10 8 -3 15 -1 15 4 0 6 -7 10 -15 10 -13 0 -13 2 -3 14 8 8 15 10 19
4 4 -7 9 -6 13 1 4 6 5 15 2 20 -3 5 1 11 9 15 8 3 19 -3 24 -12 9 -15 10 -15
10 3 0 11 3 32 7 48 l6 27 -186 0 -186 0 0 100 c0 99 0 99 33 132 18 18 55 51
83 73 27 21 52 44 56 49 3 5 49 11 102 14 l96 4 1 -31 c1 -17 3 -35 4 -41 1
-5 3 -75 4 -155 1 -118 4 -145 15 -145 8 0 17 6 19 13 4 10 6 10 6 0 1 -7 5
-13 10 -13 6 0 8 9 6 19 -2 13 1 18 9 15 8 -3 20 1 27 8 8 7 28 20 44 28 17 8
40 27 53 42 13 16 27 26 32 23 4 -3 15 6 24 20 12 19 25 25 51 25 19 0 35 5
35 11 0 5 5 7 10 4 6 -3 10 1 10 9 0 9 5 16 10 16 6 0 10 32 10 75 l0 75 -78
0 c-44 0 -127 3 -186 7 l-107 6 3 51 3 51 65 33 c59 29 64 37 18 25z"/>
<path d="M10886 5985 c-4 -19 -11 -35 -16 -35 -6 0 -10 -7 -10 -15 0 -9 -6
-28 -14 -43 -7 -15 -16 -43 -20 -62 l-6 -35 13 30 c8 17 12 33 10 37 -2 4 3 5
11 2 13 -5 16 -24 16 -99 0 -79 3 -94 20 -110 24 -22 25 -38 5 -55 -19 -16
-19 -45 1 -75 14 -22 24 -25 73 -25 62 0 123 23 155 59 17 19 18 23 5 36 -12
12 -20 11 -57 -6 -29 -14 -53 -18 -72 -14 -35 8 -80 58 -80 88 0 38 38 86 86
109 45 22 46 23 60 4 22 -31 17 -53 -13 -61 -50 -12 -82 -56 -50 -68 7 -3 33
4 57 15 50 23 92 19 129 -15 19 -18 23 -19 18 -4 -4 9 -2 17 3 17 6 0 10 -4
10 -10 0 -5 5 -10 10 -10 6 0 -13 31 -42 70 -37 49 -57 68 -69 65 -8 -3 -24 4
-34 15 -15 16 -16 22 -5 35 11 13 10 19 -5 35 -10 11 -25 19 -34 18 -9 -1 -49
0 -88 0 -73 2 -73 2 -73 30 1 15 7 44 14 65 8 20 10 39 6 42 -4 3 -11 -11 -14
-30z"/>
<path d="M11369 5981 c6 -10 7 -22 3 -26 -4 -5 -1 -5 6 -1 9 5 9 12 2 27 -6
10 -13 19 -16 19 -2 0 0 -8 5 -19z"/>
<path d="M9420 5956 c0 -2 9 -6 20 -9 11 -3 18 -1 14 4 -5 9 -34 13 -34 5z"/>
<path d="M4580 5895 c0 -5 5 -17 10 -25 5 -8 10 -10 10 -5 0 6 -5 17 -10 25
-5 8 -10 11 -10 5z"/>
<path d="M9528 5891 c17 -11 -32 -21 -99 -21 l-49 0 0 -35 c0 -26 4 -35 18
-36 49 -3 76 -9 81 -17 3 -5 19 -10 35 -10 15 0 31 -4 35 -9 7 -10 83 -47 119
-58 12 -3 22 -11 22 -16 0 -5 7 -9 15 -9 8 0 15 -5 15 -11 0 -18 23 -4 31 19
6 16 4 27 -9 40 -20 19 -121 108 -137 120 -38 29 -74 52 -82 52 -4 0 -2 -4 5
-9z"/>
<path d="M6380 5849 c0 -21 21 -25 52 -8 12 6 39 11 62 11 30 0 36 2 21 8 -11
4 -46 8 -77 8 -51 0 -58 -2 -58 -19z"/>
<path d="M6637 5857 c2 -4 13 -5 22 -2 11 3 28 -6 47 -25 31 -31 57 -40 48
-15 -4 8 -12 15 -19 15 -8 0 -21 8 -31 18 -17 17 -77 26 -67 9z"/>
<path d="M8971 5854 c0 -11 3 -14 6 -6 3 7 2 16 -1 19 -3 4 -6 -2 -5 -13z"/>
<path d="M11240 5862 c0 -4 -11 -14 -25 -23 l-25 -15 30 -34 c16 -19 29 -30
30 -23 0 6 -4 15 -10 18 -5 3 -10 11 -10 16 0 6 3 8 8 6 4 -3 8 10 9 29 1 19
0 34 -3 34 -2 0 -4 -3 -4 -8z"/>
<path d="M6555 5850 c3 -5 8 -10 11 -10 2 0 4 5 4 10 0 6 -5 10 -11 10 -5 0
-7 -4 -4 -10z"/>
<path d="M10190 5816 c0 -13 43 -76 53 -76 4 0 7 -4 7 -10 0 -5 10 -25 23 -43
21 -31 25 -33 34 -18 9 14 1 27 -43 71 -30 29 -59 60 -64 69 -5 9 -10 12 -10
7z"/>
<path d="M10795 5770 c-4 -17 -5 -34 -2 -36 2 -3 7 10 11 27 8 42 0 50 -9 9z"/>
<path d="M6840 5740 c8 -5 20 -10 25 -10 6 0 3 5 -5 10 -8 5 -19 10 -25 10 -5
0 -3 -5 5 -10z"/>
<path d="M10770 5714 c0 -8 5 -12 10 -9 6 4 8 11 5 16 -9 14 -15 11 -15 -7z"/>
<path d="M4677 5699 c4 -13 8 -18 11 -10 2 7 -1 18 -6 23 -8 8 -9 4 -5 -13z"/>
<path d="M6885 5710 c27 -12 43 -12 25 0 -8 5 -22 9 -30 9 -10 0 -8 -3 5 -9z"/>
<path d="M4703 5675 c-3 -9 -3 -18 -1 -21 3 -3 8 4 11 16 6 23 -1 27 -10 5z"/>
<path d="M5888 5653 c7 -3 16 -2 19 1 4 3 -2 6 -13 5 -11 0 -14 -3 -6 -6z"/>
<path d="M10740 5649 c0 -5 5 -7 10 -4 6 3 10 8 10 11 0 2 -4 4 -10 4 -5 0
-10 -5 -10 -11z"/>
<path d="M7028 5643 c7 -3 16 -2 19 1 4 3 -2 6 -13 5 -11 0 -14 -3 -6 -6z"/>
<path d="M7075 5616 c17 -7 33 -11 38 -9 4 2 7 -7 7 -20 0 -14 3 -39 6 -56 l7
-31 153 0 154 0 1 -37 c2 -36 2 -35 8 10 4 27 13 52 20 56 14 9 -67 27 -164
36 -33 3 -64 10 -69 15 -6 6 -19 10 -31 10 -11 0 -46 9 -78 20 -63 22 -98 26
-52 6z"/>
<path d="M11212 5580 c0 -19 2 -27 5 -17 2 9 2 25 0 35 -3 9 -5 1 -5 -18z"/>
<path d="M10710 5589 c0 -5 5 -7 10 -4 6 3 10 8 10 11 0 2 -4 4 -10 4 -5 0
-10 -5 -10 -11z"/>
<path d="M7680 5561 c-32 -4 -40 -8 -27 -13 9 -4 23 -5 31 -2 8 3 36 9 62 14
40 6 42 8 14 7 -19 0 -55 -3 -80 -6z"/>
<path d="M10676 5534 c-8 -21 -4 -25 14 -14 11 7 12 12 4 20 -8 8 -13 7 -18
-6z"/>
<path d="M11192 5520 c-7 -11 -8 -20 -3 -20 9 0 24 30 18 36 -1 2 -8 -6 -15
-16z"/>
<path d="M7096 5485 c4 -8 10 -15 15 -15 5 0 9 7 9 15 0 8 -7 15 -15 15 -9 0
-12 -6 -9 -15z"/>
<path d="M10818 5467 c18 -18 32 -40 32 -48 0 -9 -25 -36 -55 -60 -56 -44 -56
-44 -34 -61 27 -23 56 -9 71 33 5 16 16 29 24 29 10 0 14 14 14 48 0 38 -5 53
-23 70 -13 12 -32 22 -42 22 -16 0 -14 -5 13 -33z"/>
<path d="M5035 5441 c-4 -17 -10 -29 -15 -26 -5 3 -11 -8 -15 -25 -4 -16 -10
-30 -15 -30 -7 0 -22 -41 -16 -47 1 -2 12 16 25 40 28 54 44 81 53 87 4 3 3
12 -1 19 -6 10 -11 5 -16 -18z"/>
<path d="M10686 5428 c-11 -15 -12 -26 -5 -39 15 -29 22 -29 58 2 29 24 32 30
21 44 -18 22 -56 19 -74 -7z"/>
<path d="M10585 5380 c-3 -11 -4 -24 0 -30 3 -5 -3 -15 -15 -22 -11 -7 -20
-18 -20 -24 0 -5 22 -35 49 -64 46 -53 49 -54 76 -42 24 11 30 10 46 -4 23
-20 24 -32 5 -53 -13 -14 -7 -16 65 -13 l79 4 0 60 c0 51 -2 59 -14 49 -25
-21 -75 -30 -106 -20 -31 11 -107 94 -134 147 -19 37 -23 39 -31 12z"/>
<path d="M4950 5290 c0 -5 4 -10 10 -10 5 0 12 -11 16 -25 4 -14 9 -24 12 -21
7 8 -19 66 -29 66 -5 0 -9 -4 -9 -10z"/>
<path d="M10497 5239 c-2 -8 -2 -36 1 -64 5 -48 4 -49 -13 -35 -17 14 -17 13
-8 -5 10 -17 19 -20 75 -17 l64 4 -31 31 c-17 18 -42 47 -57 66 -17 23 -27 29
-31 20z"/>
<path d="M10466 5184 c-9 -24 -2 -26 12 -4 7 11 8 20 3 20 -5 0 -12 -7 -15
-16z"/>
<path d="M5090 5118 c0 -11 144 -168 155 -168 1 0 3 38 4 84 l2 84 -81 4 c-44
2 -80 0 -80 -4z"/>
<path d="M10880 5070 c0 -57 16 -67 26 -16 3 19 13 37 21 40 21 8 6 26 -23 26
-22 0 -24 -4 -24 -50z"/>
<path d="M10388 5082 c-16 -26 -15 -28 23 -76 21 -26 39 -54 39 -60 0 -23 -61
-85 -103 -105 -55 -27 -66 -26 -110 3 -29 20 -36 22 -41 9 -3 -8 6 -30 20 -48
14 -19 23 -39 19 -45 -4 -7 38 -10 129 -10 l136 0 0 -96 c0 -56 4 -93 9 -89 5
3 12 -7 14 -22 l4 -28 2 28 c0 16 7 27 16 27 8 0 17 11 21 25 3 14 10 25 15
25 5 0 9 6 9 14 0 7 11 21 24 31 14 11 23 26 21 36 -2 10 -1 18 3 18 21 -3 42
2 42 11 0 5 -7 7 -15 4 -8 -4 -15 -1 -15 5 0 7 -27 11 -75 11 l-75 0 0 128 0
128 -48 51 -49 52 -15 -27z"/>
<path d="M10292 4962 c-38 -43 -39 -48 -11 -62 24 -14 74 2 83 27 7 16 -5 43
-27 61 -10 9 -20 4 -45 -26z"/>
<path d="M10106 4750 l-38 -38 18 -27 c18 -27 18 -28 -6 -47 -23 -18 -23 -18
-45 2 -26 24 -45 11 -45 -32 0 -52 -113 -148 -158 -134 -11 4 -32 -6 -55 -25
-29 -24 -36 -36 -31 -51 5 -18 3 -20 -20 -14 -17 4 -32 2 -40 -6 -8 -7 -22
-19 -32 -26 -42 -28 -160 -112 -171 -122 -7 -5 -15 -10 -19 -10 -12 0 -114
-73 -114 -81 0 -4 -14 -10 -30 -14 -17 -4 -28 -10 -25 -15 3 -5 17 -2 32 5 15
8 30 12 35 9 4 -3 8 -32 8 -65 l0 -59 -75 0 c-64 0 -75 2 -76 18 -1 9 -6 2
-11 -15 -15 -45 -53 -47 -63 -3 -4 17 -11 30 -17 30 -6 0 -8 -7 -5 -14 4 -10
1 -13 -8 -10 -14 6 -107 -34 -113 -48 -2 -4 -19 -10 -38 -14 -25 -5 -32 -10
-25 -17 8 -8 14 -8 23 1 33 33 38 15 38 -144 l0 -155 165 2 c90 1 164 4 163 8
-2 23 4 41 13 36 6 -4 8 -13 5 -21 -3 -7 -1 -16 3 -19 12 -7 21 47 21 129 0
39 3 108 7 154 l6 82 183 0 184 0 0 -45 c0 -41 2 -45 25 -45 13 0 28 6 32 13
4 6 17 12 28 12 14 0 19 6 17 18 -2 12 4 17 25 18 17 1 21 3 11 6 -10 2 -18 9
-18 14 0 5 -27 9 -60 9 l-60 0 0 184 0 183 180 5 c100 3 183 8 185 10 3 3 8
85 13 184 6 163 9 179 25 176 20 -3 21 6 4 29 -11 15 -17 13 -51 -21z m-746
-817 c0 -62 -20 -83 -77 -83 -39 0 -43 2 -43 24 0 21 6 25 33 28 29 3 32 6 35
41 3 32 7 37 28 37 22 0 24 -4 24 -47z m440 -3 c0 -5 -4 -10 -10 -10 -5 0 -10
5 -10 10 0 6 5 10 10 10 6 0 10 -4 10 -10z"/>
<path d="M5250 4411 c6 -12 15 -21 20 -21 5 0 16 -7 25 -16 9 -9 18 -14 21
-11 6 6 -32 44 -59 59 -16 8 -17 7 -7 -11z"/>
<path d="M10130 4271 c0 -56 4 -103 10 -106 6 -3 10 1 10 10 0 10 5 13 12 9 6
-4 8 -3 5 3 -7 11 31 51 42 43 3 -3 10 5 16 17 8 18 36 35 54 32 9 -1 22 32
16 41 -3 6 1 7 9 4 11 -4 16 0 16 11 0 10 7 15 18 13 9 -1 18 2 20 7 1 6 -44
11 -113 13 l-115 3 0 -100z"/>
<path d="M5488 4238 c5 -5 16 -8 23 -6 8 3 3 7 -10 11 -17 4 -21 3 -13 -5z"/>
<path d="M5620 4135 c5 -14 10 -37 10 -51 0 -13 4 -24 8 -24 5 0 21 -13 38
-29 19 -19 44 -30 75 -35 l47 -7 5 33 c6 41 2 46 -70 83 -32 17 -60 33 -63 37
-3 3 -18 10 -33 13 -26 7 -27 6 -17 -20z"/>
<path d="M9270 4075 c0 -14 2 -25 4 -25 2 0 6 11 8 25 3 14 1 25 -3 25 -5 0
-9 -11 -9 -25z"/>
<path d="M5866 4023 c-12 -13 6 -78 28 -95 34 -28 56 -23 56 12 0 17 1 33 2
38 2 10 -78 53 -86 45z"/>
<path d="M6011 3923 c0 -21 -3 -64 -7 -95 l-6 -58 45 0 c49 0 104 -25 201 -94
38 -27 72 -44 92 -44 l30 -1 10 94 9 94 -35 10 c-69 18 -195 65 -198 73 -2 4
-8 8 -13 8 -6 0 -35 11 -65 25 -30 14 -56 25 -58 25 -2 0 -4 -17 -5 -37z"/>
<path d="M8880 3911 c-15 -4 -20 -10 -13 -14 6 -4 24 0 39 8 30 15 18 18 -26
6z"/>
<path d="M9765 3890 c-3 -5 -1 -10 4 -10 6 0 11 5 11 10 0 6 -2 10 -4 10 -3 0
-8 -4 -11 -10z"/>
<path d="M8808 3883 c-10 -2 -18 -9 -18 -14 0 -12 13 -12 26 0 5 5 18 11 29
14 l20 5 -20 0 c-11 0 -28 -2 -37 -5z"/>
<path d="M8758 3853 c7 -3 16 -2 19 1 4 3 -2 6 -13 5 -11 0 -14 -3 -6 -6z"/>
<path d="M8700 3846 c0 -9 30 -14 35 -6 4 6 -3 10 -14 10 -12 0 -21 -2 -21 -4z"/>
<path d="M8635 3823 c-16 -3 -34 -8 -40 -13 -5 -5 -28 -11 -50 -15 -22 -4 -44
-11 -50 -15 -10 -7 -46 -17 -170 -45 -33 -7 -76 -18 -95 -24 -19 -6 -51 -11
-70 -11 -29 -1 -32 -2 -17 -11 13 -7 27 -7 49 0 50 18 58 14 58 -24 l0 -35
-187 1 c-104 1 -177 4 -163 9 25 7 25 7 -5 11 -16 2 -77 1 -135 -3 -138 -8
-649 -15 -585 -7 l50 6 -52 1 c-28 1 -54 6 -57 11 -3 4 -49 11 -102 15 -53 4
-104 11 -113 15 -9 5 -55 12 -101 15 -47 3 -77 3 -67 0 23 -7 24 -69 1 -78 -9
-3 -91 -6 -182 -7 -122 -1 -158 -3 -134 -10 17 -5 32 -14 32 -20 0 -6 4 -8 9
-5 10 7 126 -30 156 -48 11 -7 33 -16 50 -20 16 -4 33 -12 36 -18 4 -6 16 -7
28 -3 18 5 21 14 21 66 l0 59 184 0 183 0 7 -61 c3 -34 6 -83 6 -108 0 -56 7
-65 45 -68 65 -4 137 -14 160 -23 16 -6 25 -5 29 3 3 8 7 9 13 2 4 -5 17 -11
28 -13 11 -1 37 -5 58 -9 l37 -6 0 142 0 141 180 0 c135 0 182 -3 185 -12 3
-7 8 -74 13 -148 7 -131 8 -135 30 -136 12 -1 22 3 22 7 0 5 11 9 25 9 14 0
25 -4 25 -9 0 -6 10 -8 23 -5 12 2 49 6 82 8 33 2 72 9 86 14 19 7 30 7 37 0
8 -8 15 -8 27 2 12 10 15 37 15 141 l0 129 188 2 187 3 3 80 c4 101 4 102 44
114 34 9 16 11 -37 4z"/>
<path d="M6398 3793 c6 -2 18 -2 25 0 6 3 1 5 -13 5 -14 0 -19 -2 -12 -5z"/>
<path d="M6448 3783 c6 -2 18 -2 25 0 6 3 1 5 -13 5 -14 0 -19 -2 -12 -5z"/>
<path d="M6515 3760 c17 -4 41 -8 55 -8 22 0 22 1 -5 8 -16 4 -41 8 -55 8 -22
0 -22 -1 5 -8z"/>
<path d="M6613 3733 c9 -2 23 -2 30 0 6 3 -1 5 -18 5 -16 0 -22 -2 -12 -5z"/>
<path d="M6669 3721 c12 -8 51 -4 51 5 0 2 -15 4 -32 4 -23 0 -29 -3 -19 -9z"/>
<path d="M8063 3673 c15 -2 37 -2 50 0 12 2 0 4 -28 4 -27 0 -38 -2 -22 -4z"/>
<path d="M7932 3660 c17 -10 85 -7 96 4 3 3 -21 6 -54 6 -44 -1 -55 -3 -42
-10z"/>
<path d="M8630 3515 c0 -104 5 -120 30 -90 7 9 19 14 27 11 7 -3 13 -1 13 4 0
15 47 12 53 -2 3 -8 6 -5 6 6 1 14 6 17 25 12 21 -5 24 -3 21 16 -3 15 -1 18
6 11 11 -11 99 5 99 18 0 4 9 6 20 4 11 -2 20 0 20 5 0 5 10 10 23 12 19 3 22
10 25 51 l3 47 -185 0 -186 0 0 -105z"/>
<path d="M0 500 l0 -500 7500 0 7500 0 0 500 0 500 -7500 0 -7500 0 0 -500z
m860 144 l0 -56 34 6 c41 8 92 -11 121 -44 17 -19 21 -39 24 -141 l3 -119 -36
0 -36 0 0 104 c0 121 -9 139 -69 134 l-36 -3 -3 -117 -3 -118 -34 0 -35 0 0
205 0 205 35 0 35 0 0 -56z m630 -54 l49 0 3 37 c2 30 9 41 36 56 l32 19 0
-56 0 -56 41 0 c39 0 40 -1 37 -32 -3 -30 -6 -33 -40 -36 l-38 -3 0 -66 c0
-71 16 -103 52 -103 13 0 18 -8 18 -30 0 -28 -3 -30 -36 -30 -75 0 -104 44
-104 160 l0 70 -50 0 -50 0 0 -69 c0 -74 14 -101 51 -101 14 0 19 -7 19 -30 0
-28 -2 -30 -39 -30 -28 0 -49 7 -68 24 -26 23 -28 30 -31 115 -3 70 -7 91 -18
91 -9 0 -14 12 -14 35 0 24 5 35 15 35 11 0 15 11 15 38 0 33 4 40 33 54 l32
15 3 -53 3 -54 49 0z m1010 55 l0 -55 35 0 c33 0 35 -2 35 -35 0 -33 -2 -35
-35 -35 l-35 0 0 -76 c0 -75 0 -76 30 -87 23 -9 30 -17 30 -39 0 -26 -3 -28
-37 -28 -71 1 -93 37 -93 148 0 71 -2 80 -20 85 -15 4 -20 14 -20 36 0 24 4
31 20 31 16 0 20 7 20 38 0 30 5 40 28 54 15 9 30 17 35 17 4 1 7 -24 7 -54z
m710 -56 l0 -111 47 56 c45 53 50 56 92 56 l45 0 -35 -37 c-19 -21 -47 -52
-62 -69 l-28 -31 61 -78 c33 -43 60 -79 60 -81 0 -2 -17 -4 -39 -4 -35 0 -42
5 -80 55 -23 31 -46 53 -52 50 -5 -4 -9 -28 -9 -56 l0 -49 -35 0 -35 0 0 205
0 205 35 0 35 0 0 -111z m9710 31 c0 -33 -4 -60 -10 -60 -6 0 -10 27 -10 60 0
33 4 60 10 60 6 0 10 -27 10 -60z m61 13 l15 -48 15 44 c22 68 39 65 39 -8 0
-65 -19 -87 -21 -23 l-1 37 -12 -35 c-7 -19 -16 -35 -21 -35 -5 0 -14 16 -21
35 l-12 35 -1 -37 c-1 -59 -21 -44 -21 15 0 83 19 91 41 20z m153 -17 c19 -58
19 -56 6 -56 -5 0 -10 7 -10 15 0 9 -9 15 -25 15 -16 0 -25 -6 -25 -15 0 -8
-4 -15 -10 -15 -5 0 -10 2 -10 4 0 3 21 65 35 105 8 20 20 4 39 -53z m90 58
c28 -11 17 -24 -15 -17 l-30 6 3 -44 c2 -36 7 -44 23 -44 25 0 32 32 8 38 -14
4 -13 5 5 6 20 1 23 -3 20 -26 -2 -20 -9 -29 -26 -31 -34 -5 -52 15 -52 57 0
52 22 71 64 55z m101 -4 c-3 -5 -15 -10 -26 -10 -10 0 -19 -7 -19 -15 0 -8 9
-15 20 -15 11 0 20 -4 20 -10 0 -5 -9 -10 -20 -10 -33 0 -26 -38 8 -43 22 -3
20 -4 -10 -6 l-38 -1 0 53 c0 30 3 57 7 60 11 11 65 8 58 -3z m62 -82 c-2 -18
-4 -4 -4 32 0 36 2 50 4 33 2 -18 2 -48 0 -65z m97 76 c19 -18 21 -75 4 -92
-7 -7 -25 -12 -40 -12 -28 0 -28 1 -28 60 0 57 1 60 24 60 14 0 32 -7 40 -16z
m244 4 c7 -7 12 -28 12 -48 0 -41 -15 -60 -44 -59 -18 1 -17 2 4 8 22 6 25 12
25 51 0 38 -3 45 -20 45 -26 0 -32 -35 -9 -52 10 -7 13 -13 8 -13 -15 0 -34
22 -34 40 0 18 19 40 35 40 6 0 16 -5 23 -12z m102 -2 c0 -19 -41 -109 -47
-103 -2 3 5 23 16 46 27 52 26 59 -6 64 -26 4 -26 4 5 6 21 0 32 -4 32 -13z
m76 6 c7 -4 11 -29 10 -57 -1 -50 -1 -50 -36 -51 l-35 -2 33 5 c39 5 47 43 10
44 l-23 0 23 11 c33 16 24 44 -13 41 -22 -2 -26 0 -15 7 18 12 31 12 46 2z
m88 2 c24 -9 19 -48 -10 -75 l-26 -24 34 -6 c31 -6 31 -6 -11 -8 l-45 -1 32
33 c36 37 40 61 15 76 -20 12 -13 14 11 5z m101 -10 c20 -21 16 -83 -6 -97
-30 -19 -49 -1 -49 46 0 61 23 82 55 51z m95 1 c10 -12 10 -19 2 -27 -8 -8 -8
-15 0 -28 17 -27 2 -52 -29 -48 -26 3 -28 7 -29 48 -2 64 26 91 56 55z m90 0
c10 -12 10 -19 2 -27 -8 -8 -8 -15 0 -28 16 -25 3 -50 -27 -50 -30 0 -43 25
-27 50 8 13 8 20 0 28 -13 13 6 42 27 42 7 0 18 -7 25 -15z m88 3 c18 -18 15
-33 -13 -67 l-26 -30 28 -4 c23 -3 21 -4 -10 -6 l-38 -1 32 39 c38 48 34 77
-9 67 -20 -5 -23 -4 -12 4 20 13 33 13 48 -2z m105 -70 c9 -6 9 -8 0 -8 -7 0
-14 -8 -14 -17 -1 -17 -2 -17 -6 0 -3 10 -14 17 -29 17 -30 0 -30 1 4 52 l27
42 3 -39 c2 -22 9 -43 15 -47z m-855 15 l-2 -58 -3 53 c-3 35 -8 50 -15 46 -7
-4 -8 -2 -4 4 16 27 26 9 24 -45z m-91 15 c-3 -8 -6 -5 -6 6 -1 11 2 17 5 13
3 -3 4 -12 1 -19z m-12785 -49 c14 -8 15 -14 7 -39 -9 -26 -13 -28 -35 -19
-38 14 -80 11 -95 -7 -11 -14 -11 -18 4 -29 10 -7 35 -15 57 -19 96 -15 119
-117 38 -166 -37 -22 -107 -26 -157 -9 -33 12 -34 13 -22 44 7 17 17 20 82 20
67 0 74 2 74 20 0 19 -16 27 -76 40 -48 9 -74 39 -74 83 0 47 24 78 69 91 33
10 100 5 128 -10z m1131 10 c51 -14 77 -57 77 -126 l0 -53 -85 0 c-76 0 -85
-2 -85 -19 0 -39 34 -48 105 -27 11 3 29 -1 40 -9 19 -15 19 -16 -8 -43 -24
-23 -35 -27 -88 -27 -56 0 -63 3 -90 33 -27 31 -29 37 -29 121 0 100 16 133
73 150 43 12 46 12 90 0z m265 -26 c3 -31 1 -33 -27 -33 -49 0 -61 -29 -61
-142 l0 -98 -30 0 -30 0 0 123 c0 115 2 125 23 145 28 27 65 42 97 39 20 -2
26 -8 28 -34z m182 26 c54 -11 56 -15 39 -53 -10 -21 -15 -23 -36 -15 -37 14
-79 11 -94 -7 -11 -14 -11 -18 4 -29 10 -7 35 -15 56 -19 52 -8 80 -33 87 -77
12 -74 -74 -125 -178 -105 -52 10 -61 19 -48 48 11 23 16 24 83 24 60 -1 72 2
75 16 4 19 -12 28 -86 48 -34 9 -46 18 -60 46 -16 34 -15 37 3 72 14 25 31 41
55 49 44 15 40 15 100 2z m712 1 c33 -10 78 -50 78 -70 0 -5 -13 -13 -29 -18
-23 -8 -31 -7 -45 9 -19 23 -59 25 -80 3 -19 -19 -22 -134 -4 -152 17 -17 68
-15 89 3 20 19 69 10 69 -12 0 -43 -85 -82 -153 -69 -58 11 -81 46 -85 131 -6
111 18 161 83 178 32 8 38 7 77 -3z m446 -16 c2 -11 -4 -26 -12 -33 -31 -26
-71 14 -45 45 17 21 53 14 57 -12z m-2338 -99 c0 -105 2 -115 20 -125 12 -6
33 -10 48 -8 l27 3 3 123 3 122 34 0 35 0 0 -143 0 -144 -39 -11 c-82 -25
-162 -8 -186 39 -11 20 -15 61 -15 144 l0 115 35 0 35 0 0 -115z m1610 81 c0
-34 -1 -35 -42 -38 -43 -3 -43 -3 -46 -45 -3 -42 -4 -43 -39 -43 l-35 0 4 57
c6 75 36 103 109 103 l49 0 0 -34z m95 -163 c-1 -75 -29 -103 -102 -103 l-54
0 3 33 c3 29 6 32 43 37 39 5 40 6 43 48 3 42 4 43 35 40 32 -3 32 -4 32 -55z
m10647 -25 c-3 -61 -12 -60 -12 2 0 29 3 50 7 47 3 -4 6 -26 5 -49z m671 9
c14 11 17 12 10 2 -10 -12 -9 -20 4 -40 16 -24 16 -24 -3 -6 -12 9 -23 17 -27
17 -3 0 -8 -8 -10 -17 -3 -10 -4 7 -4 37 0 33 2 42 4 22 4 -34 5 -34 26 -15z
m-501 -8 c-3 -20 0 -34 9 -40 11 -7 11 -9 -2 -9 -12 0 -18 11 -21 41 -4 41 -1
52 12 44 4 -2 5 -18 2 -36z m50 0 c-3 -20 0 -34 9 -40 11 -7 11 -9 -2 -9 -12
0 -18 11 -22 38 -4 39 -1 55 12 48 4 -3 6 -19 3 -37z m250 23 c-16 -5 -15 -59
1 -65 7 -3 5 -6 -5 -6 -15 -1 -18 7 -18 44 0 38 3 43 17 38 11 -4 12 -8 5 -11z
m-520 -3 c-14 -5 -20 -13 -16 -20 4 -8 3 -9 -5 -5 -16 10 5 36 28 35 10 0 8
-3 -7 -10z m93 0 c11 -16 1 -19 -13 -3 -7 8 -8 14 -3 14 5 0 13 -5 16 -11z
m253 -1 c7 -7 12 -16 12 -22 0 -5 -6 -2 -13 9 -17 22 -37 12 -37 -20 0 -17 7
-25 25 -28 23 -4 23 -4 -2 -3 -21 1 -29 7 -31 24 -3 22 13 52 27 52 4 0 12 -5
19 -12z m60 0 c-9 -7 -19 -26 -21 -43 -4 -27 -4 -27 -6 7 -1 34 7 45 33 47 6
1 2 -5 -6 -11z m50 5 c-24 -6 -23 -20 2 -33 30 -16 25 -40 -7 -39 -24 2 -25 2
-5 6 27 5 28 10 0 32 -23 19 -17 42 10 40 15 -1 15 -2 0 -6z m142 -8 c17 -20
4 -65 -18 -65 -22 0 -42 19 -42 40 0 35 38 51 60 25z m58 4 c-10 -5 -22 -17
-27 -27 -6 -9 -11 -12 -11 -5 0 15 28 43 43 43 7 0 4 -5 -5 -11z m246 5 c9 -3
16 -11 16 -16 0 -6 -6 -5 -15 2 -19 16 -35 4 -35 -26 0 -29 26 -33 47 -6 13
15 13 15 3 -6 -15 -31 -54 -26 -58 6 -2 13 2 30 8 38 14 16 13 16 34 8z m134
-7 c6 -5 11 -23 11 -40 l-2 -32 -6 35 c-4 22 -12 35 -21 35 -9 0 -17 -13 -21
-35 -6 -35 -6 -35 -8 -4 0 16 -5 34 -10 40 -12 11 38 12 57 1z m-1390 -28 c-3
-8 -7 -3 -11 10 -4 17 -3 21 5 13 5 -5 8 -16 6 -23z m48 4 c7 -25 8 -25 15 -8
5 13 8 15 8 5 0 -8 -3 -21 -8 -29 -6 -10 -11 -6 -19 15 l-10 29 -11 -29 c-6
-16 -14 -27 -16 -24 -7 6 18 68 27 68 4 0 11 -12 14 -27z m51 10 c4 -10 11
-21 17 -25 8 -5 8 -10 0 -18 -9 -9 -13 -4 -19 17 -3 15 -12 31 -18 35 -9 6 -9
8 1 8 7 0 16 -8 19 -17z m70 -6 l12 28 -6 -30 c-8 -43 -21 -52 -29 -22 -3 15
-10 24 -15 21 -11 -6 -12 10 -1 20 4 5 11 -4 16 -18 l10 -26 13 27z m43 -17
c4 0 10 10 14 23 5 18 8 20 16 7 5 -8 10 -19 10 -25 0 -5 -4 -3 -9 4 -8 12
-11 9 -16 -12 -4 -15 -11 -27 -15 -27 -9 0 -20 37 -19 60 1 8 4 5 6 -7 2 -13
8 -23 13 -23z m330 5 c0 -32 -2 -35 -30 -35 -16 0 -30 4 -30 8 0 5 10 8 23 8
17 -1 23 5 25 27 5 38 12 34 12 -8z m763 3 c-8 -46 -13 -48 -13 -5 0 21 4 37
10 37 5 0 7 -14 3 -32z m-126 -29 c11 0 13 -3 5 -6 -17 -7 -42 15 -41 36 0 11
3 9 9 -6 5 -13 17 -23 27 -24z m-911 5 c-4 -9 -9 -15 -11 -12 -3 3 -3 13 1 22
4 9 9 15 11 12 3 -3 3 -13 -1 -22z m109 5 c0 -8 -11 -14 -28 -15 -26 -1 -26
-1 -2 3 23 4 24 7 13 20 -11 14 -11 15 2 11 8 -2 15 -11 15 -19z m641 -17
c-10 -2 -22 0 -28 6 -6 6 0 7 19 4 21 -5 23 -7 9 -10z"/>
<path d="M13097 630 c-3 -12 0 -20 8 -20 8 0 11 8 8 20 -3 11 -7 20 -8 20 -1
0 -5 -9 -8 -20z"/>
<path d="M13430 621 c0 -43 9 -55 34 -45 11 4 16 19 16 45 0 35 -3 39 -25 39
-22 0 -25 -4 -25 -39z"/>
<path d="M14057 663 c-4 -3 -7 -26 -7 -50 0 -40 2 -44 23 -41 17 2 23 11 25
36 4 43 -21 76 -41 55z"/>
<path d="M14145 660 c-4 -7 -3 -16 3 -22 14 -14 45 -2 40 15 -6 16 -34 21 -43
7z"/>
<path d="M14140 591 c0 -16 6 -21 26 -21 33 0 30 33 -4 38 -17 3 -22 -2 -22
-17z"/>
<path d="M14235 660 c-4 -7 -3 -16 3 -22 14 -14 45 -2 40 15 -6 16 -34 21 -43
7z"/>
<path d="M14242 608 c-20 -20 -14 -38 13 -38 27 0 33 21 12 39 -10 8 -17 7
-25 -1z"/>
<path d="M14426 625 c-16 -24 -16 -25 4 -25 15 0 20 7 20 25 0 14 -2 25 -4 25
-2 0 -11 -11 -20 -25z"/>
<path d="M1792 518 c-7 -7 -12 -22 -12 -35 0 -21 4 -23 50 -23 46 0 50 2 50
23 0 30 -18 47 -50 47 -14 0 -31 -5 -38 -12z"/>
<path d="M3461 564 c0 -11 3 -14 6 -6 3 7 2 16 -1 19 -3 4 -6 -2 -5 -13z"/>
<path d="M13994 376 c-9 -24 4 -48 23 -44 12 2 18 12 18 28 0 29 -32 41 -41
16z"/>
</g>
</svg>
